#N canvas -8 -8 1920 997 10;
#X text 177 395 creation arguments are OSC address;
#X text 179 356 set message to change OSC address;
#X text 164 166 1 Set IP Address : network address;
#X text 164 186 2 Set Ports (sending and listening);
#X text 164 205 3 Set OSC Addresses (routing osc data;
#X text 155 144 Key Settings;
#X floatatom 43 312 5 0 0 0 - - -;
#N canvas 199 56 771 493 oscReceive 0;
#X obj 55 184 netreceive -u -b;
#X msg 78 143 listen 0;
#X text 152 143 stop listening;
#X text 64 58 packets from network;
#X text 173 177 UDP packets \, binary output, f 13;
#X obj 45 314 print;
#X obj 45 272 oscparse;
#X text 150 114 listen on port 8000;
#X obj 177 269 oscparse;
#X obj 177 293 list trim;
#X text 241 267 Parse the OSC message;
#X obj 177 319 route unity;
#X msg 66 115 listen 8000;
#X obj 66 84 loadbang;
#X floatatom 108 409 5 0 0 0 - - -;
#X obj 108 383 route oscplaywave;
#X obj 108 440 s oscplaywave;
#X floatatom 226 409 5 0 0 0 - - -;
#X obj 226 383 route oscplayocean;
#X obj 226 440 s oscplayocean;
#X floatatom 347 409 5 0 0 0 - - -;
#X obj 347 440 s playfootstep;
#X obj 347 383 route playfootstep;
#X floatatom 473 409 5 0 0 0 - - -;
#X obj 473 383 route playrunstep;
#X obj 473 440 s playrunstep;
#X connect 0 0 6 0;
#X connect 0 0 8 0;
#X connect 1 0 0 0;
#X connect 6 0 5 0;
#X connect 8 0 9 0;
#X connect 9 0 11 0;
#X connect 11 0 15 0;
#X connect 11 0 18 0;
#X connect 11 0 22 0;
#X connect 11 0 24 0;
#X connect 12 0 0 0;
#X connect 13 0 12 0;
#X connect 14 0 16 0;
#X connect 15 0 14 0;
#X connect 17 0 19 0;
#X connect 18 0 17 0;
#X connect 20 0 21 0;
#X connect 22 0 20 0;
#X connect 23 0 25 0;
#X connect 24 0 23 0;
#X restore 47 260 pd oscReceive;
#X obj 47 154 tgl 15 0 empty empty empty 17 7 0 10 -262144 -1 -1 1
1;
#X msg 47 179 \; pd dsp \$1;
#X obj 44 396 oscformat PD message;
#X msg 76 357 set PD message;
#N canvas 727 97 450 300 oscSend 0;
#X msg 158 207 disconnect;
#X obj 61 253 netsend -u -b;
#X obj 59 55 list prepend send;
#X obj 59 80 list trim;
#X msg 150 175 connect 127.0.0.1 8001;
#X obj 59 29 r oscOut;
#X text 301 163 send to port 8001;
#X msg 147 148 connect localhost 8001;
#X obj 147 108 loadbang;
#X connect 0 0 1 0;
#X connect 2 0 3 0;
#X connect 3 0 1 0;
#X connect 4 0 1 0;
#X connect 5 0 2 0;
#X connect 7 0 1 0;
#X connect 8 0 7 0;
#X restore 47 236 pd oscSend;
#X obj 44 431 s oscOut;
#X obj 223 880 vline~;
#X obj 617 872 *~;
#X obj 609 1005 dac~;
#X obj 559 782 noise~;
#X obj 231 628 vsl 15 128 0 2000 0 0 empty empty empty 0 -9 0 10 -262144
-1 -1 9000 1;
#X obj 275 627 vsl 15 128 0 4000 0 0 empty empty empty 0 -9 0 10 -262144
-1 -1 11000 1;
#X floatatom 231 776 5 1000 2000 0 - - -;
#X floatatom 275 776 5 1000 4000 0 - - -;
#X obj 321 626 vsl 15 128 0 2000 0 0 empty empty empty 0 -9 0 10 -262144
-1 -1 9200 1;
#X floatatom 321 777 5 1000 2000 0 - - -;
#X text 218 627 A;
#X text 261 625 S;
#X text 308 625 R;
#X obj 223 925 throw~ sound;
#X obj 656 835 catch~ sound;
#X msg 223 848 0.1 \$1 \, 0.06 \$2 \$1 \, 0 \$3 \$2;
#X obj 223 813 pack f f f;
#X text 368 489 (Attack ms \, Sustain ms \, Release ms);
#X text 228 832 0.1 is the max volume \, and 0.06 is the decay volume
;
#X text 303 926 vline info is thrown to catch sound;
#X text 338 621 Control Sound with Sliders;
#X obj 577 831 lop~ \$1;
#X floatatom 613 792 5 0 0 0 - - -;
#X obj 610 638 vsl 15 128 0 2000 0 0 empty empty empty 0 -9 0 10 -262144
-1 -1 7700 1;
#X text 571 618 controllable low pass filter;
#X text 338 465 Unity can send A \, S \, R values here;
#X text 407 443 OCEAN;
#X text 43 642 init values for A \, S \, R;
#X text 662 714 init value for Filter in Hz;
#X msg 715 759 1500;
#X obj 275 1308 *~;
#X obj 264 1397 dac~;
#X obj 213 1227 noise~;
#X obj 230 1267 lop~ \$1;
#X obj 715 732 loadbang;
#X obj 347 1243 line~;
#X obj 347 1195 \$1 100;
#X obj 347 1149 tgl 15 0 empty empty empty 17 7 0 10 -262144 -1 -1
0 1;
#X obj 274 1342 *~ 0.1;
#X text 417 1141 OCEAN (static);
#X obj 266 443 r oscplaywave;
#X obj 347 1094 r oscplayocean;
#X floatatom 265 477 5 0 0 0 - - -;
#X floatatom 405 573 5 0 0 0 - - -;
#X obj 710 889 / 127;
#X obj 788 751 vsl 15 128 0 127 0 0 empty empty empty 0 -9 0 10 -262144
-1 -1 12700 1;
#X obj 615 921 *~;
#X floatatom 748 962 5 0 0 0 - - -;
#X obj 264 518 bng 15 250 50 0 empty empty empty 17 7 0 10 -262144
-1 -1;
#X obj 341 532 / 2000;
#X obj 1148 1028 dac~;
#X obj 1149 716 vline~;
#X obj 1149 737 *~ -1;
#X obj 1149 758 +~ 0.25;
#X obj 1149 800 *~;
#X obj 1149 779 cos~;
#X obj 1149 826 *~ 0.5;
#X obj 1149 867 +~;
#X obj 1112 509 t b;
#X obj 1167 509 / 4;
#X obj 1167 561 / 4;
#X obj 1150 539 f;
#X obj 1149 647 f;
#X obj 1127 452 bng 15 250 50 0 empty empty empty 17 7 0 10 -262144
-1 -1;
#X obj 1129 298 r playfootstep;
#X floatatom 1129 338 5 0 1 0 - - -;
#X obj 1285 294 r playrunstep;
#X msg 1162 362 520;
#X floatatom 1263 372 5 0 1 0 - - -;
#X msg 1285 326 325;
#N canvas 955 0 956 988 dirt 0;
#X obj 238 112 inlet~;
#X obj 238 188 *~;
#X obj 169 274 *~ 500;
#X obj 169 295 +~ 40;
#X obj 169 316 osc~ 80;
#X obj 224 363 *~;
#X obj 238 209 *~;
#X obj 224 396 *~ 0.5;
#X obj 223 465 +~;
#X obj 223 534 outlet~;
#X obj 279 188 +~ 0.3;
#X obj 316 217 *~;
#X obj 316 238 *~ 70;
#X obj 316 280 osc~;
#X obj 316 322 clip~ -1 1;
#X obj 317 397 *~ 0.04;
#X obj 362 88 inlet;
#X obj 362 109 switch~;
#X obj 362 145 noise~;
#X obj 362 187 *~ 70;
#X obj 316 301 hip~ 200;
#X obj 362 166 lop~ 80;
#X obj 316 259 +~ 70;
#X connect 0 0 1 0;
#X connect 0 0 1 1;
#X connect 0 0 10 0;
#X connect 1 0 6 0;
#X connect 1 0 6 1;
#X connect 2 0 3 0;
#X connect 3 0 4 0;
#X connect 4 0 5 0;
#X connect 5 0 7 0;
#X connect 6 0 2 0;
#X connect 6 0 5 1;
#X connect 7 0 8 0;
#X connect 8 0 9 0;
#X connect 10 0 11 0;
#X connect 11 0 12 0;
#X connect 12 0 22 0;
#X connect 13 0 20 0;
#X connect 14 0 15 0;
#X connect 15 0 8 1;
#X connect 16 0 17 0;
#X connect 18 0 21 0;
#X connect 19 0 11 1;
#X connect 20 0 14 0;
#X connect 21 0 19 0;
#X connect 22 0 13 0;
#X restore 1149 954 pd dirt;
#X obj 1188 910 env~;
#X obj 1188 931 > 0.5;
#X floatatom 266 1226 5 0 0 0 - - -;
#X text 268 1207 290;
#X obj 1149 626 del;
#X msg 1149 695 0 0 0 \, 0.5 \$1 0;
#X obj 1129 411 metro 520;
#X obj 1420 1051 dac~;
#X obj 1488 885 noise~;
#X obj 1419 943 *~;
#X obj 1389 769 0 0 0 \, 0.5 \$1 0;
#X obj 1389 790 vline~;
#X obj 1420 985 *~;
#X obj 1602 915 vline~;
#X obj 1385 712 bng 15 250 50 0 empty empty empty 17 7 0 10 -262144
-1 -1;
#X obj 1385 545 r playfootstep;
#X floatatom 1385 585 5 0 1 0 - - -;
#X obj 1541 541 r playrunstep;
#X msg 1418 609 520;
#X floatatom 1519 619 5 0 1 0 - - -;
#X msg 1541 573 325;
#X obj 1385 658 metro 520;
#X msg 1389 748 2;
#X msg 1602 869 0.5 10 \, 0 50 75;
#X text 1396 517 Walk Sound;
#X text 1548 515 Run Sound;
#X text 1136 256 Walk Sound NOT WORKING;
#X text 1288 254 Run Sound NOT WORKING;
#X obj 1488 906 lop~ 50 20;
#X connect 6 0 10 0;
#X connect 8 0 9 0;
#X connect 10 0 13 0;
#X connect 11 0 10 0;
#X connect 14 0 27 0;
#X connect 15 0 60 0;
#X connect 17 0 35 0;
#X connect 18 0 20 0;
#X connect 19 0 21 0;
#X connect 20 0 30 0;
#X connect 21 0 30 1;
#X connect 22 0 23 0;
#X connect 23 0 30 2;
#X connect 28 0 15 1;
#X connect 29 0 14 0;
#X connect 30 0 29 0;
#X connect 35 0 15 0;
#X connect 36 0 35 1;
#X connect 37 0 36 0;
#X connect 43 0 36 0;
#X connect 44 0 52 0;
#X connect 46 0 47 0;
#X connect 47 0 44 0;
#X connect 48 0 43 0;
#X connect 49 0 44 1;
#X connect 50 0 49 0;
#X connect 51 0 50 0;
#X connect 52 0 45 0;
#X connect 52 0 45 1;
#X connect 54 0 56 0;
#X connect 55 0 51 0;
#X connect 56 0 58 0;
#X connect 56 0 62 0;
#X connect 56 0 63 0;
#X connect 59 0 61 0;
#X connect 60 0 16 0;
#X connect 60 0 16 1;
#X connect 62 0 18 0;
#X connect 62 0 22 0;
#X connect 62 0 19 0;
#X connect 63 0 57 0;
#X connect 63 0 60 1;
#X connect 65 0 66 0;
#X connect 66 0 67 0;
#X connect 67 0 69 0;
#X connect 68 0 70 0;
#X connect 69 0 68 0;
#X connect 69 0 68 1;
#X connect 70 0 71 0;
#X connect 71 0 85 0;
#X connect 71 0 84 0;
#X connect 72 0 75 0;
#X connect 72 0 89 0;
#X connect 73 0 75 1;
#X connect 74 0 76 1;
#X connect 75 0 74 0;
#X connect 75 0 89 1;
#X connect 76 0 90 0;
#X connect 77 0 73 0;
#X connect 77 0 72 0;
#X connect 78 0 79 0;
#X connect 79 0 81 0;
#X connect 79 0 91 0;
#X connect 80 0 83 0;
#X connect 81 0 91 1;
#X connect 82 0 91 0;
#X connect 83 0 82 0;
#X connect 83 0 91 1;
#X connect 84 0 64 0;
#X connect 84 0 64 1;
#X connect 85 0 86 0;
#X connect 86 0 84 1;
#X connect 87 0 47 1;
#X connect 89 0 76 0;
#X connect 90 0 65 0;
#X connect 91 0 77 0;
#X connect 93 0 113 0;
#X connect 94 0 97 0;
#X connect 95 0 96 0;
#X connect 96 0 94 0;
#X connect 97 0 92 0;
#X connect 97 0 92 1;
#X connect 98 0 97 1;
#X connect 99 0 107 0;
#X connect 99 0 108 0;
#X connect 100 0 101 0;
#X connect 101 0 103 0;
#X connect 101 0 106 0;
#X connect 102 0 105 0;
#X connect 103 0 106 1;
#X connect 104 0 106 0;
#X connect 105 0 104 0;
#X connect 105 0 106 1;
#X connect 106 0 99 0;
#X connect 107 0 95 0;
#X connect 108 0 98 0;
#X connect 113 0 94 1;
#X coords 0 0.0997017 1 0.0996017 0 0 0;
