#N canvas -8 -8 1920 997 10;
#X text 304 330 creation arguments are OSC address;
#X text 306 291 set message to change OSC address;
#X text 164 166 1 Set IP Address : network address;
#X text 164 186 2 Set Ports (sending and listening);
#X text 164 205 3 Set OSC Addresses (routing osc data;
#X text 155 144 Key Settings;
#X floatatom 170 247 5 0 0 0 - - -;
#N canvas 199 56 771 493 oscReceive 0;
#X obj 55 184 netreceive -u -b;
#X msg 78 143 listen 0;
#X text 152 143 stop listening;
#X text 64 58 packets from network;
#X text 173 177 UDP packets \, binary output, f 13;
#X obj 45 314 print;
#X obj 45 272 oscparse;
#X text 150 114 listen on port 8000;
#X obj 177 269 oscparse;
#X obj 177 293 list trim;
#X text 241 267 Parse the OSC message;
#X obj 177 319 route unity;
#X msg 66 115 listen 8000;
#X obj 66 84 loadbang;
#X floatatom 14 409 5 0 0 0 - - -;
#X obj 14 383 route oscplaywave;
#X obj 14 440 s oscplaywave;
#X floatatom 132 409 5 0 0 0 - - -;
#X obj 132 383 route oscplayocean;
#X obj 132 440 s oscplayocean;
#X floatatom 253 409 5 0 0 0 - - -;
#X obj 253 440 s playfootstep;
#X obj 253 383 route playfootstep;
#X floatatom 379 409 5 0 0 0 - - -;
#X obj 379 383 route playrunstep;
#X obj 379 440 s playrunstep;
#X floatatom 491 409 5 0 0 0 - - -;
#X floatatom 608 409 5 0 0 0 - - -;
#X floatatom 728 408 5 0 0 0 - - -;
#X obj 491 383 route playchannel1;
#X obj 608 383 route playchannel2;
#X obj 728 382 route playchannel3;
#X obj 491 440 s playchannel1;
#X obj 608 440 s playchannel2;
#X obj 728 439 s playchannel3;
#X floatatom 846 406 5 0 0 0 - - -;
#X obj 846 380 route playchangeradio;
#X obj 846 437 s playchangeradio;
#X connect 0 0 6 0;
#X connect 0 0 8 0;
#X connect 1 0 0 0;
#X connect 6 0 5 0;
#X connect 8 0 9 0;
#X connect 9 0 11 0;
#X connect 11 0 15 0;
#X connect 11 0 18 0;
#X connect 11 0 22 0;
#X connect 11 0 24 0;
#X connect 11 0 29 0;
#X connect 11 0 30 0;
#X connect 11 0 31 0;
#X connect 11 0 36 0;
#X connect 12 0 0 0;
#X connect 13 0 12 0;
#X connect 14 0 16 0;
#X connect 15 0 14 0;
#X connect 17 0 19 0;
#X connect 18 0 17 0;
#X connect 20 0 21 0;
#X connect 22 0 20 0;
#X connect 23 0 25 0;
#X connect 24 0 23 0;
#X connect 26 0 32 0;
#X connect 27 0 33 0;
#X connect 28 0 34 0;
#X connect 29 0 26 0;
#X connect 30 0 27 0;
#X connect 31 0 28 0;
#X connect 35 0 37 0;
#X connect 36 0 35 0;
#X restore 47 260 pd oscReceive;
#X obj 47 154 tgl 15 0 empty empty empty 17 7 0 10 -262144 -1 -1 0
1;
#X msg 47 179 \; pd dsp \$1;
#X obj 171 331 oscformat PD message;
#X msg 203 292 set PD message;
#N canvas 727 97 450 300 oscSend 0;
#X msg 158 207 disconnect;
#X obj 61 253 netsend -u -b;
#X obj 59 55 list prepend send;
#X obj 59 80 list trim;
#X msg 150 175 connect 127.0.0.1 8001;
#X obj 59 29 r oscOut;
#X text 301 163 send to port 8001;
#X msg 147 148 connect localhost 8001;
#X obj 147 108 loadbang;
#X connect 0 0 1 0;
#X connect 2 0 3 0;
#X connect 3 0 1 0;
#X connect 4 0 1 0;
#X connect 5 0 2 0;
#X connect 7 0 1 0;
#X connect 8 0 7 0;
#X restore 47 236 pd oscSend;
#X obj 171 366 s oscOut;
#X obj 223 880 vline~;
#X obj 617 872 *~;
#X obj 609 1005 dac~;
#X obj 231 628 vsl 15 128 0 2000 0 0 empty empty empty 0 -9 0 10 -262144
-1 -1 9525 1;
#X obj 275 627 vsl 15 128 0 4000 0 0 empty empty empty 0 -9 0 10 -262144
-1 -1 4762 1;
#X floatatom 231 776 5 1000 2000 0 - - -;
#X floatatom 275 776 5 1000 4000 0 - - -;
#X obj 321 626 vsl 15 128 0 2000 0 0 empty empty empty 0 -9 0 10 -262144
-1 -1 9525 1;
#X floatatom 321 777 5 1000 2000 0 - - -;
#X text 218 627 A;
#X text 261 625 S;
#X text 308 625 R;
#X obj 223 925 throw~ sound;
#X obj 656 835 catch~ sound;
#X text 333 481 (Attack ms \, Sustain ms \, Release ms);
#X text 228 832 0.1 is the max volume \, and 0.06 is the decay volume
;
#X text 303 926 vline info is thrown to catch sound;
#X text 338 621 Control Sound with Sliders;
#X obj 577 831 lop~ \$1;
#X floatatom 613 792 5 0 0 0 - - -;
#X obj 610 638 vsl 15 128 0 2000 0 0 empty empty empty 0 -9 0 10 -262144
-1 -1 0 1;
#X text 571 618 controllable low pass filter;
#X text 338 465 Unity can send A \, S \, R values here;
#X text 421 444 OCEAN;
#X text 662 714 init value for Filter in Hz;
#X obj 275 1308 *~;
#X obj 264 1397 dac~;
#X obj 230 1267 lop~ \$1;
#X obj 715 732 loadbang;
#X obj 347 1243 line~;
#X obj 347 1195 \$1 100;
#X obj 347 1149 tgl 15 0 empty empty empty 17 7 0 10 -262144 -1 -1
0 1;
#X obj 274 1342 *~ 0.1;
#X obj 266 443 r oscplaywave;
#X obj 347 1112 r oscplayocean;
#X floatatom 265 477 5 0 0 0 - - -;
#X floatatom 405 573 5 0 0 0 - - -;
#X obj 710 889 / 127;
#X obj 788 751 vsl 15 128 0 127 0 0 empty empty empty 0 -9 0 10 -262144
-1 -1 0 1;
#X obj 615 921 *~;
#X floatatom 748 962 5 0 0 0 - - -;
#X obj 264 518 bng 15 250 50 0 empty empty empty 17 7 0 10 -262144
-1 -1;
#X obj 341 532 / 2000;
#X floatatom 266 1226 5 0 0 0 - - -;
#X obj 1103 887 *~;
#X obj 1023 769 0 0 0 \, 0.5 \$1 0;
#X obj 1023 790 vline~;
#X obj 1104 929 *~;
#X obj 1286 859 vline~;
#X obj 1069 633 bng 15 250 50 0 empty empty empty 17 7 0 10 -262144
-1 -1;
#X obj 1069 489 r playfootstep;
#X floatatom 1069 529 5 0 1 0 - - -;
#X obj 1225 485 r playrunstep;
#X msg 1102 553 520;
#X floatatom 1203 563 5 0 1 0 - - -;
#X msg 1225 517 325;
#X obj 1069 602 metro 520;
#X msg 1023 748 2;
#X text 1080 461 Walk Sound;
#X text 1232 459 Run Sound;
#X text 1726 640 Radio Channel 1;
#X obj 1990 584 tgl 15 0 empty empty empty 17 7 0 10 -262144 -1 -1
0 1;
#X obj 2233 585 tgl 15 0 empty empty empty 17 7 0 10 -262144 -1 -1
0 1;
#X obj 1727 482 r playchannel1;
#X obj 1990 482 r playchannel2;
#X obj 2233 486 r playchannel3;
#X text 1730 451 Play Channel 1 on the radio;
#X text 1988 449 Play Channel 2 on the radio;
#X text 2232 449 Play Channel 3 on the radio;
#X floatatom 1727 532 5 0 1 0 - - -;
#X floatatom 1990 529 5 0 1 0 - - -;
#X floatatom 2233 527 5 0 1 0 - - -;
#X obj 1172 850 lop~ 15;
#X msg 1286 813 0.5 10 \, 0 50 75;
#X obj 1237 1174 dac~;
#X obj 1104 958 *~ 1.5;
#N canvas 368 88 1382 806 Radio1 0;
#X obj 1057 730 *~;
#X obj 1237 802 dac~;
#X obj 995 451 mtof;
#X obj 227 187 tgl 15 0 empty empty empty 17 7 0 10 -262144 -1 -1 0
1;
#X obj 84 474 f;
#X obj 127 476 + 1;
#X obj 960 590 phasor~;
#X floatatom 982 497 5 0 0 0 - - -;
#X obj 990 639 -~ 1;
#X obj 187 503 s metronome;
#X obj 85 535 s beatCounter0;
#X floatatom 961 144 5 0 0 0 - - -;
#X obj 1000 420 +;
#X msg 935 244 0;
#X msg 1070 372 58;
#X floatatom 1069 395 5 0 0 0 - - -;
#X obj 1068 348 loadbang;
#X msg 974 244 2;
#X msg 1015 244 4;
#X msg 1058 244 7;
#X msg 1098 244 9;
#X obj 1126 697 vline~;
#X floatatom 1134 593 5 0 2000 0 - - -;
#X floatatom 1178 593 5 0 2000 0 - - -;
#X floatatom 1224 594 5 0 2000 0 - - -;
#X text 1148 578 A, f 2;
#X text 1195 578 S;
#X text 1244 578 R;
#X obj 1177 465 bng 15 250 50 0 empty empty empty 17 7 0 10 -262144
-1 -1;
#X obj 1126 630 pack f f f;
#X obj 956 57 r metronome;
#X obj 261 285 random 4;
#X floatatom 266 319 5 0 0 0 - - -;
#X msg 256 376 1200;
#X msg 305 376 600;
#X obj 170 449 metro 600;
#X floatatom 280 420 5 0 0 0 - - -;
#X msg 446 376 600;
#X obj 259 345 select 1 2 3 4;
#X msg 391 379 300;
#X msg 349 377 400;
#X obj 1177 430 r metronome;
#X obj 370 227 metro 4000;
#X obj 1113 555 + 100;
#X obj 1109 529 random 200;
#X obj 1185 551 + 100;
#X obj 1181 525 random 200;
#X obj 1268 536 + 100;
#X obj 1264 510 random 200;
#X obj 444 352 loadbang;
#X obj 1506 452 mtof;
#X floatatom 1493 498 5 0 0 0 - - -;
#X floatatom 1403 140 5 0 0 0 - - -;
#X obj 1511 421 +;
#X msg 1377 240 0;
#X floatatom 1576 396 5 0 0 0 - - -;
#X obj 1575 349 loadbang;
#X msg 1416 240 2;
#X msg 1457 240 4;
#X msg 1500 240 7;
#X msg 1540 240 9;
#X obj 1637 698 vline~;
#X floatatom 1645 594 5 0 2000 0 - - -;
#X floatatom 1689 594 5 0 2000 0 - - -;
#X floatatom 1735 595 5 0 2000 0 - - -;
#X text 1644 578 A;
#X text 1706 577 S;
#X text 1758 578 R;
#X obj 1684 462 bng 15 250 50 0 empty empty empty 17 7 0 10 -262144
-1 -1;
#X obj 1637 631 pack f f f;
#X obj 1624 556 + 100;
#X obj 1620 530 random 200;
#X obj 1696 552 + 100;
#X obj 1692 526 random 200;
#X obj 1779 537 + 100;
#X obj 1775 511 random 200;
#X obj 1471 591 osc~;
#X msg 1577 373 70;
#X obj 505 193 tgl 15 0 empty empty empty 17 7 0 10 -262144 -1 -1 0
1;
#X obj 436 459 f;
#X obj 479 461 + 1;
#X obj 613 270 random 4;
#X floatatom 618 304 5 0 0 0 - - -;
#X msg 608 361 1200;
#X msg 657 361 600;
#X obj 522 434 metro 600;
#X floatatom 632 405 5 0 0 0 - - -;
#X msg 798 361 600;
#X obj 611 330 select 1 2 3 4;
#X msg 743 364 300;
#X msg 701 362 400;
#X obj 796 337 loadbang;
#X text 329 132 toggle to play;
#X obj 301 133 tgl 15 0 empty empty empty 17 7 0 10 -262144 -1 -1 0
1;
#X obj 539 488 s metronome2;
#X obj 437 520 s beatCounter2;
#X obj 1400 53 r metronome2;
#X obj 1685 433 r metronome2;
#X obj 1528 709 *~;
#X obj 261 209 loadbang;
#X msg 261 242 seed 13;
#X floatatom 1251 985 5 0 0 0 - - -;
#X obj 1297 1185 osc~;
#X obj 1278 1130 mtof;
#X floatatom 1278 1153 5 0 0 0 - - -;
#X obj 1406 1249 *~;
#X msg 1241 1065 58;
#X floatatom 1273 1107 5 0 0 0 - - -;
#X obj 1475 1121 mtof;
#X floatatom 1475 1144 5 0 0 0 - - -;
#X floatatom 1470 1098 5 0 0 0 - - -;
#X msg 1486 1066 62;
#X obj 1577 1110 bng 15 250 50 0 empty empty empty 17 7 0 10 -262144
-1 -1;
#X obj 1541 1218 vline~;
#X obj 1494 1176 phasor~;
#X msg 1549 1173 0.05 1000 \, 0 3000 3500;
#X obj 1403 1214 +~;
#X obj 1363 1268 *~;
#X obj 1500 1265 *~;
#X obj 1541 1281 vline~;
#X obj 1249 1244 vline~;
#X msg 1239 1218 0.07 1000 \, 0 3000 4000;
#X msg 1565 1244 0.07 1000 \, 0 3000 4000;
#X floatatom 1408 1130 5 0 0 0 - - -;
#X obj 1409 1274 *~;
#X obj 1448 1223 osc~;
#X msg 1636 665 0.05 \$1 \, 0.01 \$2 \$1 \, 0 \$3 \$2;
#X obj 282 977 r beatCounter0;
#X floatatom 280 1004 5 0 0 0 - - -;
#X obj 271 1079 select 1 2 3 4;
#X obj 342 1195 vline~;
#X obj 168 1185 lop~ \$1;
#X floatatom 178 1148 5 0 0 0 - - -;
#X obj 178 997 vsl 15 128 0 2000 0 0 empty empty empty 0 -9 0 10 -262144
-1 -1 5397 1;
#X obj 292 1239 *~;
#X obj 1406 1331 dac~;
#X obj 595 1341 dac~;
#X obj 1696 902 r beatCounter0;
#X floatatom 1696 933 5 0 0 0 - - -;
#X msg 330 1167 0.1 50 \, 0 50 50;
#X obj 299 1112 bng 15 250 50 0 empty empty empty 17 7 0 10 -262144
-1 -1;
#X obj 348 1112 bng 15 250 50 0 empty empty empty 17 7 0 10 -262144
-1 -1;
#X obj 275 1031 mod 5;
#X floatatom 273 1056 5 0 0 0 - - -;
#X obj 620 972 r beatCounter0;
#X floatatom 618 999 5 0 0 0 - - -;
#X obj 609 1074 select 1 2 3 4;
#X obj 680 1190 vline~;
#X floatatom 516 1143 5 0 0 0 - - -;
#X obj 516 992 vsl 15 128 0 2000 0 0 empty empty empty 0 -9 0 10 -262144
-1 -1 12065 1;
#X obj 630 1234 *~;
#X obj 637 1107 bng 15 250 50 0 empty empty empty 17 7 0 10 -262144
-1 -1;
#X obj 686 1107 bng 15 250 50 0 empty empty empty 17 7 0 10 -262144
-1 -1;
#X floatatom 611 1051 5 0 0 0 - - -;
#X obj 553 1269 +~;
#X obj 613 1026 mod 6;
#X obj 506 1180 hip~ \$1;
#X msg 668 1162 0.1 25 \, 0 50 25;
#X obj 1355 1011 loadbang;
#X obj 173 942 loadbang;
#X msg 174 970 850;
#X obj 509 930 loadbang;
#X msg 514 960 1900;
#X floatatom 930 977 5 0 0 0 - - -;
#X obj 992 1168 vline~;
#X floatatom 828 1121 5 0 0 0 - - -;
#X obj 828 970 vsl 15 128 0 2000 0 0 empty empty empty 0 -9 0 10 -262144
-1 -1 12700 1;
#X obj 942 1212 *~;
#X obj 949 1085 bng 15 250 50 0 empty empty empty 17 7 0 10 -262144
-1 -1;
#X obj 998 1085 bng 15 250 50 0 empty empty empty 17 7 0 10 -262144
-1 -1;
#X floatatom 923 1029 5 0 0 0 - - -;
#X obj 818 1158 hip~ \$1;
#X obj 821 908 loadbang;
#X obj 605 1288 +~;
#X msg 980 1140 0.1 10 \, 0 10 10;
#X msg 826 938 2500;
#X obj 925 1004 mod 7;
#X obj 921 1052 select 1 2 3 4 5 6;
#X obj 932 950 r beatCounter2;
#X text 1642 650 comment;
#X obj 1018 681 *~;
#X obj 1036 639 phasor~;
#X floatatom 1019 595 5 0 2000 0 - - -;
#X obj 1046 546 loadbang;
#X floatatom 1377 551 5 0 2000 0 - - -;
#X obj 1404 502 loadbang;
#X obj 1394 595 osc~;
#X obj 1445 649 *~;
#X msg 1127 656 0.06 \$1 \, 0.01 \$2 \$1 \, 0 \$3 \$2;
#X text 507 876 DRUM SECTION;
#X text 357 92 METRONOME;
#X text 1222 17 MELODY SECTION;
#X text 1427 861 PAD SECTION;
#X msg 1282 1065 62;
#X msg 1447 1067 65;
#X obj 960 96 random 5;
#X obj 1402 91 random 5;
#X obj 960 190 select 0 1 2 3;
#X obj 1402 186 select 0 1 2 3;
#X floatatom 1550 292 5 0 0 0 - - -;
#X floatatom 1094 289 5 0 0 0 - - -;
#X msg 1265 709 1;
#X floatatom 1266 734 5 0 0 0 - - -;
#X obj 1264 688 loadbang;
#X obj 1268 759 *~;
#X obj 1234 758 *~;
#X msg 1017 571 8;
#X msg 1375 527 8;
#X text 1134 413 randomized Attack \, Sustain \, Release;
#X text 1616 416 randomized Attack \, Sustain \, Release;
#X floatatom 1464 984 5 0 0 0 - - -;
#X obj 1227 1016 select 0 1;
#X obj 1250 960 random 3;
#X msg 1317 1066 65;
#X msg 1552 1066 58;
#X msg 1521 1065 69;
#X obj 1466 1011 select 0 1 2;
#X obj 1463 959 random 4;
#X obj 1684 1034 s padTrigger;
#X obj 1591 1076 r padTrigger;
#X text 1693 887 Pad Timer;
#X obj 1462 925 r padTrigger;
#X obj 1249 930 r padTrigger;
#X obj 1695 974 mod 8;
#X obj 1682 1004 select 0;
#X msg 1409 1102 0.1;
#X obj 31 39 inlet;
#X floatatom 373 276 5 0 0 0 - - -;
#X floatatom 98 507 5 0 0 0 - - -;
#X floatatom 479 495 5 0 0 0 - - -;
#X obj 261 85 r startRadio1;
#X obj 34 96 s startRadio1;
#X obj 90 1148 r~ noiseSend;
#X obj 426 1138 r~ noiseSend;
#X obj 736 1116 r~ noiseSend;
#X connect 0 0 1 0;
#X connect 0 0 205 0;
#X connect 2 0 7 0;
#X connect 3 0 35 0;
#X connect 4 0 5 0;
#X connect 4 0 10 0;
#X connect 4 0 228 0;
#X connect 5 0 4 1;
#X connect 6 0 8 0;
#X connect 7 0 6 0;
#X connect 8 0 180 0;
#X connect 11 0 197 0;
#X connect 12 0 2 0;
#X connect 13 0 12 0;
#X connect 14 0 15 0;
#X connect 15 0 12 1;
#X connect 16 0 14 0;
#X connect 17 0 12 0;
#X connect 18 0 12 0;
#X connect 19 0 12 0;
#X connect 19 0 200 0;
#X connect 20 0 12 0;
#X connect 20 0 200 0;
#X connect 21 0 0 1;
#X connect 22 0 29 0;
#X connect 23 0 29 1;
#X connect 24 0 29 2;
#X connect 28 0 44 0;
#X connect 28 0 46 0;
#X connect 28 0 48 0;
#X connect 29 0 188 0;
#X connect 30 0 195 0;
#X connect 31 0 32 0;
#X connect 32 0 38 0;
#X connect 33 0 36 0;
#X connect 34 0 36 0;
#X connect 35 0 4 0;
#X connect 35 0 9 0;
#X connect 36 0 35 1;
#X connect 37 0 36 0;
#X connect 38 1 33 0;
#X connect 38 2 34 0;
#X connect 38 3 40 0;
#X connect 38 4 39 0;
#X connect 39 0 36 0;
#X connect 40 0 36 0;
#X connect 41 0 28 0;
#X connect 42 0 81 0;
#X connect 42 0 31 0;
#X connect 42 0 227 0;
#X connect 43 0 22 0;
#X connect 44 0 43 0;
#X connect 45 0 23 0;
#X connect 46 0 45 0;
#X connect 47 0 24 0;
#X connect 48 0 47 0;
#X connect 49 0 37 0;
#X connect 50 0 51 0;
#X connect 51 0 76 0;
#X connect 52 0 198 0;
#X connect 53 0 50 0;
#X connect 54 0 53 0;
#X connect 54 0 199 0;
#X connect 55 0 53 1;
#X connect 56 0 77 0;
#X connect 57 0 53 0;
#X connect 57 0 199 0;
#X connect 58 0 53 0;
#X connect 58 0 199 0;
#X connect 59 0 53 0;
#X connect 59 0 199 0;
#X connect 60 0 53 0;
#X connect 60 0 199 0;
#X connect 61 0 98 1;
#X connect 62 0 69 0;
#X connect 63 0 69 1;
#X connect 64 0 69 2;
#X connect 68 0 71 0;
#X connect 68 0 73 0;
#X connect 68 0 75 0;
#X connect 69 0 126 0;
#X connect 70 0 62 0;
#X connect 71 0 70 0;
#X connect 72 0 63 0;
#X connect 73 0 72 0;
#X connect 74 0 64 0;
#X connect 75 0 74 0;
#X connect 76 0 187 0;
#X connect 77 0 55 0;
#X connect 78 0 85 0;
#X connect 79 0 80 0;
#X connect 79 0 95 0;
#X connect 79 0 229 0;
#X connect 80 0 79 1;
#X connect 81 0 82 0;
#X connect 82 0 88 0;
#X connect 83 0 86 0;
#X connect 84 0 86 0;
#X connect 85 0 79 0;
#X connect 85 0 94 0;
#X connect 86 0 85 1;
#X connect 87 0 86 0;
#X connect 88 1 83 0;
#X connect 88 2 84 0;
#X connect 88 3 90 0;
#X connect 88 4 89 0;
#X connect 89 0 86 0;
#X connect 90 0 86 0;
#X connect 91 0 87 0;
#X connect 93 0 78 0;
#X connect 93 0 3 0;
#X connect 93 0 42 0;
#X connect 96 0 196 0;
#X connect 97 0 68 0;
#X connect 98 0 1 1;
#X connect 98 0 204 0;
#X connect 99 0 100 0;
#X connect 100 0 31 0;
#X connect 101 0 211 0;
#X connect 102 0 116 0;
#X connect 102 0 117 0;
#X connect 103 0 104 0;
#X connect 104 0 102 0;
#X connect 105 0 124 0;
#X connect 106 0 107 0;
#X connect 107 0 103 0;
#X connect 108 0 109 0;
#X connect 109 0 114 0;
#X connect 110 0 108 0;
#X connect 111 0 110 0;
#X connect 112 0 115 0;
#X connect 112 0 122 0;
#X connect 112 0 121 0;
#X connect 113 0 124 1;
#X connect 114 0 116 1;
#X connect 114 0 118 0;
#X connect 115 0 113 0;
#X connect 116 0 105 0;
#X connect 117 0 135 0;
#X connect 118 0 135 1;
#X connect 119 0 118 1;
#X connect 120 0 117 1;
#X connect 121 0 120 0;
#X connect 122 0 119 0;
#X connect 123 0 125 0;
#X connect 124 0 135 0;
#X connect 124 0 135 1;
#X connect 125 0 105 1;
#X connect 126 0 61 0;
#X connect 127 0 128 0;
#X connect 128 0 142 0;
#X connect 129 0 140 0;
#X connect 129 3 141 0;
#X connect 130 0 134 1;
#X connect 131 0 134 0;
#X connect 132 0 131 1;
#X connect 133 0 132 0;
#X connect 134 0 154 0;
#X connect 137 0 138 0;
#X connect 138 0 223 0;
#X connect 139 0 130 0;
#X connect 140 0 139 0;
#X connect 141 0 139 0;
#X connect 142 0 143 0;
#X connect 143 0 129 0;
#X connect 144 0 145 0;
#X connect 145 0 155 0;
#X connect 146 2 151 0;
#X connect 146 3 152 0;
#X connect 146 4 152 0;
#X connect 147 0 150 1;
#X connect 148 0 156 1;
#X connect 149 0 148 0;
#X connect 150 0 154 1;
#X connect 151 0 157 0;
#X connect 152 0 157 0;
#X connect 153 0 146 0;
#X connect 154 0 173 0;
#X connect 155 0 153 0;
#X connect 156 0 150 0;
#X connect 157 0 147 0;
#X connect 158 0 106 0;
#X connect 158 0 111 0;
#X connect 158 0 225 0;
#X connect 159 0 160 0;
#X connect 160 0 133 0;
#X connect 161 0 162 0;
#X connect 162 0 149 0;
#X connect 163 0 176 0;
#X connect 164 0 167 1;
#X connect 165 0 171 1;
#X connect 166 0 165 0;
#X connect 167 0 173 1;
#X connect 168 0 174 0;
#X connect 169 0 174 0;
#X connect 170 0 177 0;
#X connect 171 0 167 0;
#X connect 172 0 175 0;
#X connect 173 0 136 0;
#X connect 173 0 136 1;
#X connect 174 0 164 0;
#X connect 175 0 166 0;
#X connect 176 0 170 0;
#X connect 177 0 168 0;
#X connect 177 1 168 0;
#X connect 177 2 168 0;
#X connect 177 3 169 0;
#X connect 177 4 169 0;
#X connect 177 6 169 0;
#X connect 178 0 163 0;
#X connect 180 0 0 0;
#X connect 181 0 180 1;
#X connect 182 0 181 0;
#X connect 183 0 206 0;
#X connect 184 0 186 0;
#X connect 185 0 207 0;
#X connect 186 0 187 1;
#X connect 187 0 98 0;
#X connect 188 0 21 0;
#X connect 193 0 107 0;
#X connect 194 0 110 0;
#X connect 195 0 11 0;
#X connect 196 0 52 0;
#X connect 197 0 13 0;
#X connect 197 1 17 0;
#X connect 197 2 18 0;
#X connect 197 3 19 0;
#X connect 197 4 20 0;
#X connect 198 0 54 0;
#X connect 198 1 57 0;
#X connect 198 2 58 0;
#X connect 198 3 59 0;
#X connect 198 4 60 0;
#X connect 201 0 202 0;
#X connect 202 0 205 1;
#X connect 202 0 204 1;
#X connect 203 0 201 0;
#X connect 204 0 1 0;
#X connect 205 0 1 1;
#X connect 206 0 182 0;
#X connect 207 0 184 0;
#X connect 210 0 216 0;
#X connect 211 0 106 0;
#X connect 211 1 193 0;
#X connect 211 2 213 0;
#X connect 212 0 101 0;
#X connect 213 0 107 0;
#X connect 214 0 110 0;
#X connect 215 0 110 0;
#X connect 216 0 194 0;
#X connect 216 1 111 0;
#X connect 216 2 215 0;
#X connect 216 3 214 0;
#X connect 217 0 210 0;
#X connect 219 0 112 0;
#X connect 221 0 217 0;
#X connect 222 0 212 0;
#X connect 223 0 224 0;
#X connect 224 0 218 0;
#X connect 225 0 123 0;
#X connect 226 0 231 0;
#X connect 230 0 93 0;
#X connect 232 0 131 0;
#X connect 233 0 156 0;
#X connect 234 0 171 0;
#X restore 1728 621 pd Radio1;
#X obj 1728 578 tgl 15 0 empty empty empty 17 7 0 10 -262144 -1 -1
0 1;
#X obj 1417 714 vline~;
#X floatatom 1355 676 5 0 0 0 - - -;
#X obj 1383 759 *~;
#X obj 1345 713 hip~ \$1;
#X obj 1347 606 loadbang;
#X msg 1352 636 2500;
#X obj 1423 969 +~;
#X obj 1522 882 vline~;
#X floatatom 1464 833 5 0 0 0 - - -;
#X obj 1458 928 *~;
#X obj 1454 870 hip~ \$1;
#X obj 1458 772 loadbang;
#X msg 1463 802 1000;
#X msg 1509 854 0.01 25 \, 0 50 25;
#X obj 1401 654 r stepTempo;
#X obj 1508 818 r stepTempo;
#X msg 1405 686 0.01 20 \, 0 10 10;
#X obj 1241 1053 +~;
#X obj 755 483 noise~;
#X obj 756 512 s~ noiseSend;
#X obj 1171 811 r~ noiseSend;
#X obj 1324 578 r~ noiseSend;
#X obj 1443 748 r~ noiseSend;
#X obj 1288 777 r stepTempo;
#X obj 1022 718 r stepTempo;
#X obj 1069 665 s stepTempo;
#N canvas 254 74 1382 811 Radio2 0;
#X obj 31 39 inlet;
#X obj 31 69 s startRadio2;
#X obj 100 212 tgl 15 0 empty empty empty 17 7 0 10 -262144 -1 -1 0
1;
#X obj 21 287 f;
#X obj 64 289 + 1;
#X text 4 212 toggle to play;
#X text 206 176 METRONOME;
#X obj 22 348 s beatCounter3;
#X obj 97 316 s drumMetronome;
#X obj 199 315 s drumMetronome2;
#X obj 107 262 metro 225;
#X obj 178 263 metro 112;
#X obj 100 178 r startRadio2;
#X msg 353 244 start;
#X obj 364 122 loadbang;
#X obj 341 190 bng 15 250 50 0 empty empty empty 17 7 0 10 -262144
-1 -1;
#X msg 508 241 start;
#X obj 515 304 readsf~ 2;
#X obj 496 187 bng 15 250 50 0 empty empty empty 17 7 0 10 -262144
-1 -1;
#X obj 360 307 readsf~ 2;
#X msg 867 244 start;
#X obj 874 307 readsf~ 2;
#X obj 854 190 bng 15 250 50 0 empty empty empty 17 7 0 10 -262144
-1 -1;
#X msg 694 252 start;
#X obj 701 315 readsf~ 2;
#X obj 682 198 bng 15 250 50 0 empty empty empty 17 7 0 10 -262144
-1 -1;
#X msg 738 267 open Snare.wav;
#X floatatom 657 498 5 0 0 0 - - -;
#X msg 658 472 0.5;
#X obj 628 520 *~;
#X obj 704 348 +~;
#X obj 877 347 +~;
#X obj 363 339 +~;
#X obj 446 408 +~;
#X obj 780 385 +~;
#X obj 605 445 +~;
#X obj 520 344 +~;
#X obj 624 556 dac~;
#X msg 553 256 open Hat.wav;
#X msg 915 251 open Perc.wav;
#X floatatom 505 84 5 0 0 0 - - -;
#X obj 505 39 r drumMetronome;
#X obj 657 445 loadbang;
#X obj 613 25 r drumMetronome2;
#X floatatom 616 69 5 0 0 0 - - -;
#X obj 531 115 select 0 1 2 3 4 5 6 7 8 9 10;
#X obj 506 62 random 12;
#X obj 1121 514 mtof;
#X floatatom 1122 547 5 0 0 0 - - -;
#X floatatom 1087 207 5 0 0 0 - - -;
#X obj 1126 483 +;
#X msg 1061 307 0;
#X floatatom 1195 458 5 0 0 0 - - -;
#X obj 1194 411 loadbang;
#X obj 1088 182 random 5;
#X obj 1086 253 select 0 1 2 3;
#X floatatom 1031 361 5 0 0 0 - - -;
#X obj 1124 774 dac~;
#X obj 1181 695 vline~;
#X obj 1121 738 *~;
#X obj 961 42 r beatCounter3;
#X floatatom 967 99 5 0 0 0 - - -;
#X obj 966 126 select 0;
#X obj 1076 45 r beatCounter3;
#X floatatom 1082 102 5 0 0 0 - - -;
#X obj 1081 129 select 0;
#X obj 1061 600 phasor~;
#X obj 966 74 mod 6;
#X obj 1081 77 mod 8;
#X msg 1196 435 35;
#X msg 1100 307 1;
#X msg 1141 307 3;
#X msg 1183 308 7;
#X msg 1224 307 8;
#X floatatom 1183 103 5 0 0 0 - - -;
#X obj 1182 78 random 8;
#X obj 1181 129 select 0;
#X obj 94 1187 phasor~;
#X obj 135 1233 *~;
#X obj 127 1652 dac~;
#X obj 106 967 soundfiler;
#X floatatom 106 993 15 0 1e+009 0 - - -;
#X obj 135 1621 *~;
#X obj 98 1022 expr 44100/$f1;
#X floatatom 182 1061 5 0 0 0 - - -;
#X floatatom 272 1073 5 0 0 0 - - -;
#X obj 213 1124 * 1;
#X obj 223 1095 bng 15 250 50 0 empty empty empty 17 7 0 10 -262144
-1 -1;
#X msg 272 1045 1;
#X obj 272 1016 loadbang;
#X msg 106 938 read -resize 808.wav 808Data;
#N canvas 0 50 450 250 (subpatch) 0;
#X array 808Data 85185 float 2;
#X coords 0 1 85185 -1 200 140 1;
#X restore 517 1151 graph;
#X obj 135 1507 tabread4~ 808Data;
#X text 346 1064 Adjust playback speed;
#X obj 348 1046 hsl 128 15 -1 2 0 0 empty empty empty -2 -8 0 10 -262144
-1 -1 0 1;
#X obj 216 1267 metro 50;
#X obj 216 1296 snapshot~;
#X floatatom 216 1325 5 0 0 0 - - -;
#X obj 106 910 loadbang;
#X obj 216 1353 /;
#X obj 262 1326 r sampleSize;
#X obj 29 1048 s sampleSize;
#X floatatom 216 1385 5 0 0 0 - - -;
#X obj 216 1240 tgl 15 0 empty empty empty 17 7 0 10 -262144 -1 -1
1 1;
#X obj 47 1126 r stop808;
#X msg 47 1152 0;
#X floatatom 216 1433 5 0 0 0 - - -;
#X obj 216 1408 > 0.95;
#X obj 216 1482 s stop808;
#X obj 216 1457 select 1;
#X obj 106 815 s start808;
#X obj 106 786 bng 15 250 50 0 empty empty empty 17 7 0 10 -262144
-1 -1;
#X obj 255 1113 r start808;
#X msg 255 1142 0;
#X obj 216 1212 loadbang;
#X obj 150 1187 r sampleSize;
#X obj 251 995 r start808;
#X floatatom 358 838 5 0 0 0 - - -;
#X obj 359 813 random 5;
#X obj 236 637 r beatCounter3;
#X floatatom 242 694 5 0 0 0 - - -;
#X obj 241 721 select 0;
#X obj 351 640 r beatCounter3;
#X floatatom 357 697 5 0 0 0 - - -;
#X obj 356 724 select 0;
#X obj 241 669 mod 6;
#X obj 356 672 mod 8;
#X floatatom 458 698 5 0 0 0 - - -;
#X obj 457 673 random 8;
#X obj 456 724 select 0;
#X floatatom 391 985 5 0 0 0 - - -;
#X msg 332 938 1;
#X obj 357 884 select 0 1 2 3 4;
#X obj 149 1590 vline~;
#X obj 149 1531 r start808;
#X msg 149 1560 0.6 40 \, 0 40 10000;
#X msg 463 938 1.5;
#X msg 371 938 1.2;
#X msg 503 937 1.7778;
#X msg 412 938 1.3334;
#X obj 615 48 random 88;
#X obj 1181 47 r drumMetronome;
#X obj 456 642 r drumMetronome;
#X obj 1087 162 bng 15 250 50 0 empty empty empty 17 7 0 10 -262144
-1 -1;
#X msg 398 259 open Kick.wav;
#N canvas 0 50 450 300 wait1 0;
#X obj 161 140 pipe;
#X floatatom 182 115 5 0 0 0 - - -;
#X obj 182 63 loadbang;
#X obj 160 172 bng 15 250 50 0 empty empty empty 17 7 0 10 -262144
-1 -1;
#X obj 134 56 inlet;
#X obj 163 207 outlet;
#X msg 182 88 100, f 4;
#X connect 0 0 3 0;
#X connect 1 0 0 1;
#X connect 2 0 6 0;
#X connect 3 0 5 0;
#X connect 4 0 0 0;
#X connect 6 0 1 0;
#X restore 552 232 pd wait1;
#N canvas 0 50 450 300 wait2 0;
#X obj 161 140 pipe;
#X floatatom 182 115 5 0 0 0 - - -;
#X obj 182 63 loadbang;
#X obj 160 172 bng 15 250 50 0 empty empty empty 17 7 0 10 -262144
-1 -1;
#X obj 134 56 inlet;
#X obj 163 207 outlet;
#X msg 182 88 100, f 4;
#X connect 0 0 3 0;
#X connect 1 0 0 1;
#X connect 2 0 6 0;
#X connect 3 0 5 0;
#X connect 4 0 0 0;
#X connect 6 0 1 0;
#X restore 740 233 pd wait2;
#N canvas 0 50 450 300 wait3 0;
#X obj 161 140 pipe;
#X floatatom 182 115 5 0 0 0 - - -;
#X obj 182 63 loadbang;
#X obj 160 172 bng 15 250 50 0 empty empty empty 17 7 0 10 -262144
-1 -1;
#X obj 134 56 inlet;
#X obj 163 207 outlet;
#X msg 182 88 100, f 4;
#X connect 0 0 3 0;
#X connect 1 0 0 1;
#X connect 2 0 6 0;
#X connect 3 0 5 0;
#X connect 4 0 0 0;
#X connect 6 0 1 0;
#X restore 912 216 pd wait3;
#N canvas 0 50 450 300 wait0 0;
#X obj 161 140 pipe;
#X floatatom 182 115 5 0 0 0 - - -;
#X obj 182 63 loadbang;
#X obj 160 172 bng 15 250 50 0 empty empty empty 17 7 0 10 -262144
-1 -1;
#X obj 134 56 inlet;
#X obj 163 207 outlet;
#X msg 182 88 100, f 4;
#X connect 0 0 3 0;
#X connect 1 0 0 1;
#X connect 2 0 6 0;
#X connect 3 0 5 0;
#X connect 4 0 0 0;
#X connect 6 0 1 0;
#X restore 397 234 pd wait0;
#X obj 1175 613 osc~;
#X obj 1115 671 +~;
#X obj 1183 641 *~;
#X obj 1216 584 phasor~;
#X obj 1215 615 lop~ 1000;
#X obj 1171 582 * 2;
#X obj 1194 554 * 3;
#X msg 1181 668 0.1 225 \, 0 100 700;
#X connect 0 0 1 0;
#X connect 2 0 10 0;
#X connect 2 0 11 0;
#X connect 3 0 4 0;
#X connect 3 0 7 0;
#X connect 4 0 3 1;
#X connect 10 0 3 0;
#X connect 10 0 8 0;
#X connect 11 0 9 0;
#X connect 12 0 2 0;
#X connect 13 0 19 0;
#X connect 14 0 15 0;
#X connect 14 0 18 0;
#X connect 14 0 25 0;
#X connect 14 0 22 0;
#X connect 15 0 13 0;
#X connect 15 0 148 0;
#X connect 16 0 17 0;
#X connect 17 0 36 0;
#X connect 17 1 36 1;
#X connect 18 0 16 0;
#X connect 18 0 145 0;
#X connect 19 0 32 0;
#X connect 19 1 32 1;
#X connect 20 0 21 0;
#X connect 21 0 31 0;
#X connect 21 1 31 1;
#X connect 22 0 20 0;
#X connect 22 0 147 0;
#X connect 23 0 24 0;
#X connect 24 0 30 0;
#X connect 24 1 30 1;
#X connect 25 0 23 0;
#X connect 25 0 146 0;
#X connect 26 0 24 0;
#X connect 27 0 29 1;
#X connect 28 0 27 0;
#X connect 29 0 37 0;
#X connect 29 0 37 1;
#X connect 30 0 34 0;
#X connect 31 0 34 1;
#X connect 32 0 33 0;
#X connect 33 0 35 0;
#X connect 34 0 35 1;
#X connect 35 0 29 0;
#X connect 36 0 33 1;
#X connect 38 0 17 0;
#X connect 39 0 21 0;
#X connect 40 0 45 0;
#X connect 41 0 46 0;
#X connect 42 0 28 0;
#X connect 43 0 140 0;
#X connect 44 0 45 0;
#X connect 45 0 15 0;
#X connect 45 1 15 0;
#X connect 45 2 15 0;
#X connect 45 3 18 0;
#X connect 45 4 18 0;
#X connect 45 5 18 0;
#X connect 45 6 18 0;
#X connect 45 7 25 0;
#X connect 45 8 25 0;
#X connect 45 9 25 0;
#X connect 45 10 22 0;
#X connect 46 0 40 0;
#X connect 47 0 48 0;
#X connect 48 0 66 0;
#X connect 48 0 156 0;
#X connect 48 0 154 0;
#X connect 48 0 155 0;
#X connect 49 0 55 0;
#X connect 50 0 47 0;
#X connect 51 0 50 0;
#X connect 51 0 56 0;
#X connect 52 0 50 1;
#X connect 53 0 69 0;
#X connect 54 0 49 0;
#X connect 55 0 51 0;
#X connect 55 1 70 0;
#X connect 55 2 71 0;
#X connect 55 3 72 0;
#X connect 55 4 73 0;
#X connect 58 0 59 1;
#X connect 59 0 57 0;
#X connect 59 0 57 1;
#X connect 60 0 67 0;
#X connect 61 0 62 0;
#X connect 62 0 143 0;
#X connect 63 0 68 0;
#X connect 64 0 65 0;
#X connect 65 0 143 0;
#X connect 66 0 150 0;
#X connect 67 0 61 0;
#X connect 68 0 64 0;
#X connect 69 0 52 0;
#X connect 70 0 50 0;
#X connect 70 0 56 0;
#X connect 71 0 50 0;
#X connect 71 0 56 0;
#X connect 72 0 50 0;
#X connect 72 0 56 0;
#X connect 73 0 50 0;
#X connect 73 0 56 0;
#X connect 74 0 76 0;
#X connect 75 0 74 0;
#X connect 76 0 143 0;
#X connect 77 0 78 0;
#X connect 78 0 92 0;
#X connect 78 0 96 0;
#X connect 80 0 81 0;
#X connect 81 0 83 0;
#X connect 81 0 101 0;
#X connect 82 0 79 0;
#X connect 82 0 79 1;
#X connect 83 0 84 0;
#X connect 84 0 86 0;
#X connect 85 0 87 0;
#X connect 85 0 86 1;
#X connect 86 0 77 0;
#X connect 87 0 86 0;
#X connect 88 0 85 0;
#X connect 89 0 88 0;
#X connect 90 0 80 0;
#X connect 92 0 82 0;
#X connect 94 0 85 0;
#X connect 95 0 96 0;
#X connect 96 0 97 0;
#X connect 97 0 99 0;
#X connect 98 0 90 0;
#X connect 99 0 102 0;
#X connect 100 0 99 1;
#X connect 102 0 107 0;
#X connect 103 0 95 0;
#X connect 104 0 105 0;
#X connect 105 0 77 0;
#X connect 106 0 109 0;
#X connect 107 0 106 0;
#X connect 109 0 108 0;
#X connect 111 0 110 0;
#X connect 112 0 113 0;
#X connect 113 0 77 1;
#X connect 114 0 103 0;
#X connect 115 0 78 1;
#X connect 116 0 88 0;
#X connect 117 0 132 0;
#X connect 117 0 111 0;
#X connect 118 0 117 0;
#X connect 119 0 125 0;
#X connect 120 0 121 0;
#X connect 121 0 118 0;
#X connect 122 0 126 0;
#X connect 123 0 124 0;
#X connect 124 0 118 0;
#X connect 125 0 120 0;
#X connect 126 0 123 0;
#X connect 127 0 129 0;
#X connect 128 0 127 0;
#X connect 129 0 118 0;
#X connect 130 0 94 0;
#X connect 131 0 130 0;
#X connect 132 0 131 0;
#X connect 132 1 137 0;
#X connect 132 2 139 0;
#X connect 132 3 136 0;
#X connect 132 4 138 0;
#X connect 133 0 82 1;
#X connect 134 0 135 0;
#X connect 135 0 133 0;
#X connect 136 0 130 0;
#X connect 137 0 130 0;
#X connect 138 0 130 0;
#X connect 139 0 130 0;
#X connect 140 0 44 0;
#X connect 141 0 75 0;
#X connect 142 0 128 0;
#X connect 143 0 54 0;
#X connect 144 0 19 0;
#X connect 145 0 38 0;
#X connect 146 0 26 0;
#X connect 147 0 39 0;
#X connect 148 0 144 0;
#X connect 149 0 151 0;
#X connect 150 0 59 0;
#X connect 151 0 150 1;
#X connect 152 0 153 0;
#X connect 153 0 151 1;
#X connect 154 0 149 0;
#X connect 155 0 152 0;
#X connect 156 0 58 0;
#X restore 1990 619 pd Radio2;
#X text 1988 638 Radio Channel 2;
#X msg 176 586 1500;
#X obj 176 559 loadbang;
#X msg 715 759 350;
#X obj 266 1168 loadbang;
#X floatatom 118 766 5 1000 2000 0 - - -;
#X obj 118 644 r oscplaywave;
#X obj 118 670 bng 15 250 50 0 empty empty empty 17 7 0 10 -262144
-1 -1;
#X obj 118 741 * 0.01;
#X obj 118 717 + 10;
#X msg 223 848 \$4 \$1 \, 0.06 \$2 \$1 \, 0 \$3 \$2;
#X obj 223 814 pack f f f f;
#X obj 118 693 random 40;
#X text 755 462 noiseSend (to save CPU);
#X obj 526 720 r~ noiseSend;
#X obj 175 1203 r~ noiseSend;
#X text 333 1090 OCEAN (static background);
#X obj 873 1253 vline~;
#X obj 744 1332 *~;
#X obj 736 1405 dac~;
#X floatatom 688 1209 5 0 0 0 - - -;
#X obj 688 1151 loadbang;
#X obj 597 1186 r~ noiseSend;
#X obj 771 1128 bng 15 250 50 0 empty empty empty 17 7 0 10 -262144
-1 -1;
#X obj 806 1125 tgl 15 0 empty empty empty 17 7 0 10 -262144 -1 -1
0 1;
#X msg 873 1215 0.5 1000 \, 0 1000 1000;
#X obj 659 1261 hip~ \$1;
#X obj 705 1299 +~;
#X obj 729 1261 osc~ 250;
#X obj 760 1089 r playchangeradio;
#X obj 744 1353 *~ 0.1;
#X msg 688 1180 900;
#X msg 266 1197 175;
#X obj 1241 1074 *~ 0.5;
#N canvas 254 74 1382 811 Radio3 0;
#X obj 31 39 inlet;
#X msg 75 506 start;
#X obj 169 558 bng 15 250 50 0 empty empty empty 17 7 0 10 -262144
-1 -1;
#X obj 106 461 loadbang;
#X obj 63 452 bng 15 250 50 0 empty empty empty 17 7 0 10 -262144 -1
-1;
#X obj 82 569 readsf~ 2;
#X obj 85 601 +~;
#X floatatom 787 140 5 0 7 0 - - -;
#X obj 787 83 bng 15 250 50 0 empty empty empty 17 7 0 10 -262144 -1
-1;
#X obj 787 165 select 0 1 2 3 4 5 6 7;
#X obj 787 105 random 8;
#X obj 31 69 tgl 15 0 empty empty empty 17 7 0 10 -262144 -1 -1 0 1
;
#X floatatom 31 94 5 0 7 0 - - -;
#X obj 31 119 select 0 1;
#X obj 31 149 bng 15 250 50 0 empty empty empty 17 7 0 10 -262144 -1
-1;
#X obj 59 149 bng 15 250 50 0 empty empty empty 17 7 0 10 -262144 -1
-1;
#X obj 31 197 s stopJazz2;
#X obj 60 175 s startJazz2;
#X msg 265 505 start;
#X obj 359 557 bng 15 250 50 0 empty empty empty 17 7 0 10 -262144
-1 -1;
#X obj 296 460 loadbang;
#X obj 253 451 bng 15 250 50 0 empty empty empty 17 7 0 10 -262144
-1 -1;
#X obj 272 568 readsf~ 2;
#X obj 275 600 +~;
#X msg 120 521 open JazzIntro.wav;
#X msg 310 520 open JazzChorus.wav;
#X msg 461 500 start;
#X obj 555 552 bng 15 250 50 0 empty empty empty 17 7 0 10 -262144
-1 -1;
#X obj 492 455 loadbang;
#X obj 449 446 bng 15 250 50 0 empty empty empty 17 7 0 10 -262144
-1 -1;
#X obj 468 563 readsf~ 2;
#X obj 471 595 +~;
#X msg 506 515 open JazzBridge.wav;
#X msg 659 498 start;
#X obj 753 550 bng 15 250 50 0 empty empty empty 17 7 0 10 -262144
-1 -1;
#X obj 690 453 loadbang;
#X obj 647 444 bng 15 250 50 0 empty empty empty 17 7 0 10 -262144
-1 -1;
#X obj 666 561 readsf~ 2;
#X obj 669 593 +~;
#X msg 704 513 open JazzBridge2.wav;
#X msg 850 494 start;
#X obj 944 546 bng 15 250 50 0 empty empty empty 17 7 0 10 -262144
-1 -1;
#X obj 881 449 loadbang;
#X obj 838 440 bng 15 250 50 0 empty empty empty 17 7 0 10 -262144
-1 -1;
#X obj 857 557 readsf~ 2;
#X obj 860 589 +~;
#X msg 895 509 open JazzBridge3.wav;
#X msg 1039 489 start;
#X obj 1133 541 bng 15 250 50 0 empty empty empty 17 7 0 10 -262144
-1 -1;
#X obj 1070 444 loadbang;
#X obj 1027 435 bng 15 250 50 0 empty empty empty 17 7 0 10 -262144
-1 -1;
#X obj 1046 552 readsf~ 2;
#X obj 1049 584 +~;
#X msg 1084 504 open JazzPianoSolo.wav;
#X msg 1238 484 start;
#X obj 1332 536 bng 15 250 50 0 empty empty empty 17 7 0 10 -262144
-1 -1;
#X obj 1269 439 loadbang;
#X obj 1226 430 bng 15 250 50 0 empty empty empty 17 7 0 10 -262144
-1 -1;
#X obj 1245 547 readsf~ 2;
#X obj 1248 579 +~;
#X msg 1283 499 open JazzBassSolo.wav;
#X msg 1431 479 start;
#X obj 1525 531 bng 15 250 50 0 empty empty empty 17 7 0 10 -262144
-1 -1;
#X obj 1462 434 loadbang;
#X obj 1419 425 bng 15 250 50 0 empty empty empty 17 7 0 10 -262144
-1 -1;
#X obj 1438 542 readsf~ 2;
#X obj 1441 574 +~;
#X msg 1476 494 open JazzFinale.wav;
#X obj 698 83 r startJazz2;
#X obj 698 106 random 2;
#X obj 823 716 bng 15 250 50 0 empty empty empty 17 7 0 10 -262144
-1 -1;
#X obj 823 746 s chooseNextSection;
#X obj 787 58 r chooseNextSection;
#X obj 864 82 r stopJazz2;
#X msg 864 104 8;
#X obj 185 677 +~;
#X obj 570 689 +~;
#X obj 400 764 +~;
#X obj 958 657 +~;
#X obj 1343 669 +~;
#X obj 1173 744 +~;
#X obj 825 823 +~;
#X obj 824 919 *~;
#X obj 982 822 r stopJazz2;
#X msg 982 844 0;
#X obj 900 822 r startJazz2;
#X floatatom 940 877 5 0 7 0 - - -;
#X obj 824 968 dac~;
#X msg 900 844 0.4;
#X connect 0 0 11 0;
#X connect 1 0 5 0;
#X connect 2 0 24 0;
#X connect 2 0 70 0;
#X connect 3 0 24 0;
#X connect 4 0 1 0;
#X connect 5 0 6 0;
#X connect 5 1 6 1;
#X connect 5 2 2 0;
#X connect 6 0 75 0;
#X connect 7 0 9 0;
#X connect 8 0 10 0;
#X connect 9 0 4 0;
#X connect 9 1 21 0;
#X connect 9 2 29 0;
#X connect 9 3 36 0;
#X connect 9 4 43 0;
#X connect 9 5 50 0;
#X connect 9 6 57 0;
#X connect 9 7 64 0;
#X connect 10 0 7 0;
#X connect 11 0 12 0;
#X connect 12 0 13 0;
#X connect 13 0 14 0;
#X connect 13 1 15 0;
#X connect 14 0 16 0;
#X connect 15 0 17 0;
#X connect 18 0 22 0;
#X connect 19 0 25 0;
#X connect 19 0 70 0;
#X connect 20 0 25 0;
#X connect 21 0 18 0;
#X connect 22 0 23 0;
#X connect 22 1 23 1;
#X connect 22 2 19 0;
#X connect 23 0 75 1;
#X connect 24 0 5 0;
#X connect 25 0 22 0;
#X connect 26 0 30 0;
#X connect 27 0 32 0;
#X connect 27 0 70 0;
#X connect 28 0 32 0;
#X connect 29 0 26 0;
#X connect 30 0 31 0;
#X connect 30 1 31 1;
#X connect 30 2 27 0;
#X connect 31 0 76 0;
#X connect 32 0 30 0;
#X connect 33 0 37 0;
#X connect 34 0 39 0;
#X connect 34 0 70 0;
#X connect 35 0 39 0;
#X connect 36 0 33 0;
#X connect 37 0 38 0;
#X connect 37 1 38 1;
#X connect 37 2 34 0;
#X connect 38 0 76 1;
#X connect 39 0 37 0;
#X connect 40 0 44 0;
#X connect 41 0 46 0;
#X connect 41 0 70 0;
#X connect 42 0 46 0;
#X connect 43 0 40 0;
#X connect 44 0 45 0;
#X connect 44 1 45 1;
#X connect 44 2 41 0;
#X connect 45 0 78 0;
#X connect 46 0 44 0;
#X connect 47 0 51 0;
#X connect 48 0 53 0;
#X connect 48 0 70 0;
#X connect 49 0 53 0;
#X connect 50 0 47 0;
#X connect 51 0 52 0;
#X connect 51 1 52 1;
#X connect 51 2 48 0;
#X connect 52 0 78 1;
#X connect 53 0 51 0;
#X connect 54 0 58 0;
#X connect 55 0 60 0;
#X connect 55 0 70 0;
#X connect 56 0 60 0;
#X connect 57 0 54 0;
#X connect 58 0 59 0;
#X connect 58 1 59 1;
#X connect 58 2 55 0;
#X connect 59 0 79 0;
#X connect 60 0 58 0;
#X connect 61 0 65 0;
#X connect 62 0 67 0;
#X connect 62 0 70 0;
#X connect 63 0 67 0;
#X connect 64 0 61 0;
#X connect 65 0 66 0;
#X connect 65 1 66 1;
#X connect 65 2 62 0;
#X connect 66 0 79 1;
#X connect 67 0 65 0;
#X connect 68 0 69 0;
#X connect 69 0 7 0;
#X connect 70 0 71 0;
#X connect 72 0 8 0;
#X connect 73 0 74 0;
#X connect 74 0 7 0;
#X connect 75 0 77 0;
#X connect 76 0 77 1;
#X connect 77 0 81 0;
#X connect 78 0 80 0;
#X connect 79 0 80 1;
#X connect 80 0 81 1;
#X connect 81 0 82 0;
#X connect 82 0 87 0;
#X connect 82 0 87 1;
#X connect 83 0 84 0;
#X connect 84 0 86 0;
#X connect 85 0 88 0;
#X connect 86 0 82 1;
#X connect 88 0 86 0;
#X restore 2233 617 pd Radio3;
#X text 2232 635 Radio Channel 2;
#X connect 6 0 10 0;
#X connect 8 0 9 0;
#X connect 10 0 13 0;
#X connect 11 0 10 0;
#X connect 14 0 26 0;
#X connect 15 0 53 0;
#X connect 17 0 19 0;
#X connect 18 0 20 0;
#X connect 19 0 130 0;
#X connect 20 0 130 1;
#X connect 21 0 22 0;
#X connect 22 0 130 2;
#X connect 27 0 15 1;
#X connect 32 0 15 0;
#X connect 33 0 32 1;
#X connect 34 0 33 0;
#X connect 39 0 46 0;
#X connect 41 0 39 0;
#X connect 42 0 122 0;
#X connect 43 0 39 1;
#X connect 44 0 43 0;
#X connect 45 0 44 0;
#X connect 46 0 40 0;
#X connect 46 0 40 1;
#X connect 47 0 49 0;
#X connect 48 0 45 0;
#X connect 49 0 51 0;
#X connect 49 0 55 0;
#X connect 49 0 56 0;
#X connect 52 0 54 0;
#X connect 53 0 16 0;
#X connect 53 0 16 1;
#X connect 55 0 17 0;
#X connect 55 0 21 0;
#X connect 55 0 18 0;
#X connect 56 0 50 0;
#X connect 56 0 53 1;
#X connect 57 0 41 1;
#X connect 58 0 61 0;
#X connect 59 0 60 0;
#X connect 60 0 58 0;
#X connect 61 0 89 0;
#X connect 62 0 61 1;
#X connect 63 0 117 0;
#X connect 64 0 65 0;
#X connect 65 0 67 0;
#X connect 65 0 70 0;
#X connect 66 0 69 0;
#X connect 67 0 70 1;
#X connect 68 0 70 0;
#X connect 69 0 68 0;
#X connect 69 0 70 1;
#X connect 70 0 63 0;
#X connect 71 0 59 0;
#X connect 75 0 118 0;
#X connect 76 0 153 0;
#X connect 77 0 83 0;
#X connect 78 0 84 0;
#X connect 79 0 85 0;
#X connect 83 0 91 0;
#X connect 84 0 75 0;
#X connect 85 0 76 0;
#X connect 86 0 58 1;
#X connect 87 0 62 0;
#X connect 89 0 109 0;
#X connect 91 0 90 0;
#X connect 92 0 94 1;
#X connect 93 0 95 1;
#X connect 94 0 98 0;
#X connect 95 0 94 0;
#X connect 96 0 97 0;
#X connect 97 0 93 0;
#X connect 98 0 109 1;
#X connect 99 0 101 1;
#X connect 100 0 102 1;
#X connect 101 0 98 1;
#X connect 102 0 101 0;
#X connect 103 0 104 0;
#X connect 104 0 100 0;
#X connect 105 0 99 0;
#X connect 106 0 108 0;
#X connect 107 0 105 0;
#X connect 108 0 92 0;
#X connect 109 0 152 0;
#X connect 110 0 111 0;
#X connect 112 0 86 0;
#X connect 113 0 95 0;
#X connect 114 0 102 0;
#X connect 115 0 87 0;
#X connect 116 0 71 0;
#X connect 120 0 17 0;
#X connect 120 0 18 0;
#X connect 120 0 21 0;
#X connect 121 0 120 0;
#X connect 122 0 33 0;
#X connect 123 0 151 0;
#X connect 124 0 130 3;
#X connect 125 0 126 0;
#X connect 126 0 131 0;
#X connect 127 0 124 0;
#X connect 128 0 127 0;
#X connect 129 0 14 0;
#X connect 130 0 129 0;
#X connect 131 0 128 0;
#X connect 133 0 32 0;
#X connect 134 0 41 0;
#X connect 136 0 137 1;
#X connect 137 0 149 0;
#X connect 139 0 145 1;
#X connect 140 0 150 0;
#X connect 141 0 145 0;
#X connect 142 0 144 0;
#X connect 143 0 144 0;
#X connect 144 0 136 0;
#X connect 145 0 146 0;
#X connect 146 0 137 0;
#X connect 147 0 146 1;
#X connect 148 0 142 0;
#X connect 149 0 138 0;
#X connect 149 0 138 1;
#X connect 150 0 139 0;
#X connect 151 0 57 0;
#X connect 152 0 88 0;
#X connect 152 0 88 1;
#X coords 0 0.0997017 1 0.0996017 0 0 0;
