#N canvas -8 -8 1920 997 10;
#X text 177 395 creation arguments are OSC address;
#X text 179 356 set message to change OSC address;
#X text 164 166 1 Set IP Address : network address;
#X text 164 186 2 Set Ports (sending and listening);
#X text 164 205 3 Set OSC Addresses (routing osc data;
#X text 155 144 Key Settings;
#X floatatom 43 312 5 0 0 0 - - -;
#N canvas 199 56 771 493 oscReceive 0;
#X obj 55 184 netreceive -u -b;
#X msg 78 143 listen 0;
#X text 152 143 stop listening;
#X text 64 58 packets from network;
#X text 173 177 UDP packets \, binary output, f 13;
#X obj 45 314 print;
#X obj 45 272 oscparse;
#X text 150 114 listen on port 8000;
#X obj 177 269 oscparse;
#X obj 177 293 list trim;
#X text 241 267 Parse the OSC message;
#X obj 177 319 route unity;
#X msg 66 115 listen 8000;
#X obj 66 84 loadbang;
#X floatatom 108 409 5 0 0 0 - - -;
#X obj 108 383 route oscplaywave;
#X obj 108 440 s oscplaywave;
#X floatatom 226 409 5 0 0 0 - - -;
#X obj 226 383 route oscplayocean;
#X obj 226 440 s oscplayocean;
#X floatatom 347 409 5 0 0 0 - - -;
#X obj 347 440 s playfootstep;
#X obj 347 383 route playfootstep;
#X floatatom 473 409 5 0 0 0 - - -;
#X obj 473 383 route playrunstep;
#X obj 473 440 s playrunstep;
#X floatatom 585 409 5 0 0 0 - - -;
#X floatatom 702 409 5 0 0 0 - - -;
#X floatatom 820 409 5 0 0 0 - - -;
#X obj 585 383 route playchannel1;
#X obj 702 383 route playchannel2;
#X obj 820 383 route playchannel3;
#X obj 585 440 s playchannel1;
#X obj 702 440 s playchannel2;
#X obj 820 440 s playchannel3;
#X connect 0 0 6 0;
#X connect 0 0 8 0;
#X connect 1 0 0 0;
#X connect 6 0 5 0;
#X connect 8 0 9 0;
#X connect 9 0 11 0;
#X connect 11 0 15 0;
#X connect 11 0 18 0;
#X connect 11 0 22 0;
#X connect 11 0 24 0;
#X connect 11 0 29 0;
#X connect 11 0 30 0;
#X connect 11 0 31 0;
#X connect 12 0 0 0;
#X connect 13 0 12 0;
#X connect 14 0 16 0;
#X connect 15 0 14 0;
#X connect 17 0 19 0;
#X connect 18 0 17 0;
#X connect 20 0 21 0;
#X connect 22 0 20 0;
#X connect 23 0 25 0;
#X connect 24 0 23 0;
#X connect 26 0 32 0;
#X connect 27 0 33 0;
#X connect 28 0 34 0;
#X connect 29 0 26 0;
#X connect 30 0 27 0;
#X connect 31 0 28 0;
#X restore 47 260 pd oscReceive;
#X obj 47 154 tgl 15 0 empty empty empty 17 7 0 10 -262144 -1 -1 1
1;
#X msg 47 179 \; pd dsp \$1;
#X obj 44 396 oscformat PD message;
#X msg 76 357 set PD message;
#N canvas 727 97 450 300 oscSend 0;
#X msg 158 207 disconnect;
#X obj 61 253 netsend -u -b;
#X obj 59 55 list prepend send;
#X obj 59 80 list trim;
#X msg 150 175 connect 127.0.0.1 8001;
#X obj 59 29 r oscOut;
#X text 301 163 send to port 8001;
#X msg 147 148 connect localhost 8001;
#X obj 147 108 loadbang;
#X connect 0 0 1 0;
#X connect 2 0 3 0;
#X connect 3 0 1 0;
#X connect 4 0 1 0;
#X connect 5 0 2 0;
#X connect 7 0 1 0;
#X connect 8 0 7 0;
#X restore 47 236 pd oscSend;
#X obj 44 431 s oscOut;
#X obj 223 880 vline~;
#X obj 617 872 *~;
#X obj 609 1005 dac~;
#X obj 559 782 noise~;
#X obj 231 628 vsl 15 128 0 2000 0 0 empty empty empty 0 -9 0 10 -262144
-1 -1 10200 1;
#X obj 275 627 vsl 15 128 0 4000 0 0 empty empty empty 0 -9 0 10 -262144
-1 -1 10900 1;
#X floatatom 231 776 5 1000 2000 0 - - -;
#X floatatom 275 776 5 1000 4000 0 - - -;
#X obj 321 626 vsl 15 128 0 2000 0 0 empty empty empty 0 -9 0 10 -262144
-1 -1 10100 1;
#X floatatom 321 777 5 1000 2000 0 - - -;
#X text 218 627 A;
#X text 261 625 S;
#X text 308 625 R;
#X obj 223 925 throw~ sound;
#X obj 656 835 catch~ sound;
#X msg 223 848 0.1 \$1 \, 0.06 \$2 \$1 \, 0 \$3 \$2;
#X obj 223 813 pack f f f;
#X text 368 489 (Attack ms \, Sustain ms \, Release ms);
#X text 228 832 0.1 is the max volume \, and 0.06 is the decay volume
;
#X text 303 926 vline info is thrown to catch sound;
#X text 338 621 Control Sound with Sliders;
#X obj 577 831 lop~ \$1;
#X floatatom 613 792 5 0 0 0 - - -;
#X obj 610 638 vsl 15 128 0 2000 0 0 empty empty empty 0 -9 0 10 -262144
-1 -1 10200 1;
#X text 571 618 controllable low pass filter;
#X text 338 465 Unity can send A \, S \, R values here;
#X text 407 443 OCEAN;
#X text 43 642 init values for A \, S \, R;
#X text 662 714 init value for Filter in Hz;
#X msg 715 759 1500;
#X obj 275 1308 *~;
#X obj 264 1397 dac~;
#X obj 157 1223 noise~;
#X obj 230 1267 lop~ \$1;
#X obj 715 732 loadbang;
#X obj 347 1243 line~;
#X obj 347 1195 \$1 100;
#X obj 347 1149 tgl 15 0 empty empty empty 17 7 0 10 -262144 -1 -1
0 1;
#X obj 274 1342 *~ 0.1;
#X text 417 1141 OCEAN (static);
#X obj 266 443 r oscplaywave;
#X obj 347 1094 r oscplayocean;
#X floatatom 265 477 5 0 0 0 - - -;
#X floatatom 405 573 5 0 0 0 - - -;
#X obj 710 889 / 127;
#X obj 788 751 vsl 15 128 0 127 0 0 empty empty empty 0 -9 0 10 -262144
-1 -1 0 1;
#X obj 615 921 *~;
#X floatatom 748 962 5 0 0 0 - - -;
#X obj 264 518 bng 15 250 50 0 empty empty empty 17 7 0 10 -262144
-1 -1;
#X obj 341 532 / 2000;
#X floatatom 266 1226 5 0 0 0 - - -;
#X obj 1090 827 noise~;
#X obj 1021 885 *~;
#X obj 991 711 0 0 0 \, 0.5 \$1 0;
#X obj 991 732 vline~;
#X obj 1022 927 *~;
#X obj 1204 857 vline~;
#X obj 987 654 bng 15 250 50 0 empty empty empty 17 7 0 10 -262144
-1 -1;
#X obj 987 487 r playfootstep;
#X floatatom 987 527 5 0 1 0 - - -;
#X obj 1143 483 r playrunstep;
#X msg 1020 551 520;
#X floatatom 1121 561 5 0 1 0 - - -;
#X msg 1143 515 325;
#X obj 987 600 metro 520;
#X msg 991 690 2;
#X text 998 459 Walk Sound;
#X text 1150 457 Run Sound;
#X obj 1486 742 *~;
#X obj 1475 831 dac~;
#X obj 1441 701 lop~ \$1;
#X obj 1558 677 line~;
#X obj 1558 629 \$1 100;
#X obj 1558 583 tgl 15 0 empty empty empty 17 7 0 10 -262144 -1 -1
0 1;
#X obj 1485 776 *~ 0.1;
#X obj 1410 661 osc~ 200;
#X text 1628 575 Radio Channel 1;
#X obj 1749 743 *~;
#X obj 1704 702 lop~ \$1;
#X obj 1821 678 line~;
#X obj 1821 630 \$1 100;
#X obj 1821 584 tgl 15 0 empty empty empty 17 7 0 10 -262144 -1 -1
0 1;
#X obj 1748 777 *~ 0.1;
#X obj 1992 744 *~;
#X obj 1981 833 dac~;
#X obj 1947 703 lop~ \$1;
#X obj 2064 679 line~;
#X obj 2064 631 \$1 100;
#X obj 2064 585 tgl 15 0 empty empty empty 17 7 0 10 -262144 -1 -1
0 1;
#X obj 1991 778 *~ 0.1;
#X text 1891 576 Radio Channel 2;
#X text 2134 577 Radio Channel 3;
#X obj 1673 662 osc~ 400;
#X obj 1916 663 osc~ 600;
#X obj 1739 827 dac~;
#X floatatom 1748 664 5 0 0 0 - - -;
#X floatatom 1979 661 5 0 0 0 - - -;
#X floatatom 1482 658 5 0 0 0 - - -;
#X text 1465 624 Set to 200;
#X text 1725 637 Set to 200;
#X text 1958 637 Set to 200;
#X obj 1558 482 r playchannel1;
#X obj 1821 482 r playchannel2;
#X obj 2064 486 r playchannel3;
#X text 1561 451 Play Channel 1 on the radio;
#X text 1819 449 Play Channel 2 on the radio;
#X text 2063 449 Play Channel 3 on the radio;
#X floatatom 1558 532 5 0 1 0 - - -;
#X floatatom 1821 529 5 0 1 0 - - -;
#X floatatom 2064 527 5 0 1 0 - - -;
#X obj 1090 848 lop~ 15;
#X msg 1204 811 0.5 10 \, 0 50 75;
#X obj 1019 1019 dac~;
#X obj 1022 956 *~ 1.5;
#X text 250 1209 Set to 200;
#X connect 6 0 10 0;
#X connect 8 0 9 0;
#X connect 10 0 13 0;
#X connect 11 0 10 0;
#X connect 14 0 27 0;
#X connect 15 0 60 0;
#X connect 17 0 35 0;
#X connect 18 0 20 0;
#X connect 19 0 21 0;
#X connect 20 0 30 0;
#X connect 21 0 30 1;
#X connect 22 0 23 0;
#X connect 23 0 30 2;
#X connect 28 0 15 1;
#X connect 29 0 14 0;
#X connect 30 0 29 0;
#X connect 35 0 15 0;
#X connect 36 0 35 1;
#X connect 37 0 36 0;
#X connect 43 0 36 0;
#X connect 44 0 52 0;
#X connect 46 0 47 0;
#X connect 47 0 44 0;
#X connect 48 0 43 0;
#X connect 49 0 44 1;
#X connect 50 0 49 0;
#X connect 51 0 50 0;
#X connect 52 0 45 0;
#X connect 52 0 45 1;
#X connect 54 0 56 0;
#X connect 55 0 51 0;
#X connect 56 0 58 0;
#X connect 56 0 62 0;
#X connect 56 0 63 0;
#X connect 59 0 61 0;
#X connect 60 0 16 0;
#X connect 60 0 16 1;
#X connect 62 0 18 0;
#X connect 62 0 22 0;
#X connect 62 0 19 0;
#X connect 63 0 57 0;
#X connect 63 0 60 1;
#X connect 64 0 47 1;
#X connect 65 0 124 0;
#X connect 66 0 69 0;
#X connect 67 0 68 0;
#X connect 68 0 66 0;
#X connect 69 0 127 0;
#X connect 70 0 69 1;
#X connect 71 0 79 0;
#X connect 71 0 125 0;
#X connect 72 0 73 0;
#X connect 73 0 75 0;
#X connect 73 0 78 0;
#X connect 74 0 77 0;
#X connect 75 0 78 1;
#X connect 76 0 78 0;
#X connect 77 0 76 0;
#X connect 77 0 78 1;
#X connect 78 0 71 0;
#X connect 79 0 67 0;
#X connect 82 0 88 0;
#X connect 84 0 82 0;
#X connect 85 0 82 1;
#X connect 86 0 85 0;
#X connect 87 0 86 0;
#X connect 88 0 83 0;
#X connect 88 0 83 1;
#X connect 89 0 84 0;
#X connect 91 0 96 0;
#X connect 92 0 91 0;
#X connect 93 0 91 1;
#X connect 94 0 93 0;
#X connect 95 0 94 0;
#X connect 96 0 108 0;
#X connect 96 0 108 1;
#X connect 97 0 103 0;
#X connect 99 0 97 0;
#X connect 100 0 97 1;
#X connect 101 0 100 0;
#X connect 102 0 101 0;
#X connect 103 0 98 0;
#X connect 103 0 98 1;
#X connect 106 0 92 0;
#X connect 107 0 99 0;
#X connect 109 0 92 1;
#X connect 110 0 99 1;
#X connect 111 0 84 1;
#X connect 115 0 121 0;
#X connect 116 0 122 0;
#X connect 117 0 123 0;
#X connect 121 0 87 0;
#X connect 122 0 95 0;
#X connect 123 0 102 0;
#X connect 124 0 66 1;
#X connect 125 0 70 0;
#X connect 127 0 126 0;
#X connect 127 0 126 1;
#X coords 0 0.0997017 1 0.0996017 0 0 0;
