#N canvas -8 -8 1920 997 10;
#X text 177 395 creation arguments are OSC address;
#X text 179 356 set message to change OSC address;
#X text 164 166 1 Set IP Address : network address;
#X text 164 186 2 Set Ports (sending and listening);
#X text 164 205 3 Set OSC Addresses (routing osc data;
#X text 155 144 Key Settings;
#X floatatom 43 312 5 0 0 0 - - -;
#X obj 1746 494 select 0 1 2 3 4 5 6 7 8;
#X floatatom 1780 754 5 0 0 0 - - -;
#X obj 1786 905 *~;
#X obj 1777 950 dac~;
#X obj 1785 720 mtof;
#X obj 1783 659 + 0;
#X obj 1901 811 vline~;
#X floatatom 2090 595 5 0 0 0 - - -;
#X obj 2090 542 loadbang;
#X msg 1741 565 0;
#X floatatom 1746 430 5 0 0 0 - - -;
#N canvas 814 67 771 493 oscReceive 1;
#X obj 55 184 netreceive -u -b;
#X msg 78 143 listen 0;
#X text 152 143 stop listening;
#X text 64 58 packets from network;
#X text 173 177 UDP packets \, binary output, f 13;
#X obj 45 314 print;
#X obj 45 272 oscparse;
#X text 150 114 listen on port 8000;
#X obj 177 269 oscparse;
#X obj 177 293 list trim;
#X floatatom 93 410 5 0 0 0 - - -;
#X text 241 267 Parse the OSC message;
#X obj 177 319 route unity;
#X obj 92 387 route trigger;
#X obj 93 437 s osctrig;
#X msg 66 115 listen 8000;
#X obj 66 84 loadbang;
#X floatatom 197 412 5 0 0 0 - - -;
#X obj 196 389 route tempo;
#X obj 197 439 s osctempo;
#X floatatom 291 415 5 0 0 0 - - -;
#X obj 291 446 s oscplayseq;
#X floatatom 431 410 5 0 0 0 - - -;
#X obj 430 387 route colwall;
#X obj 431 437 s oscwall;
#X obj 539 386 route xPos;
#X floatatom 538 414 5 0 0 0 - - -;
#X floatatom 621 417 5 0 0 0 - - -;
#X obj 621 387 route zPos;
#X obj 538 445 s oscXPos;
#X obj 620 444 s oscZPos;
#X obj 291 389 route oscplayseq;
#X floatatom 339 422 5 0 0 0 - - -;
#X connect 0 0 6 0;
#X connect 0 0 8 0;
#X connect 1 0 0 0;
#X connect 6 0 5 0;
#X connect 8 0 9 0;
#X connect 9 0 12 0;
#X connect 10 0 14 0;
#X connect 12 0 13 0;
#X connect 12 0 18 0;
#X connect 12 0 23 0;
#X connect 12 0 25 0;
#X connect 12 0 28 0;
#X connect 12 0 31 0;
#X connect 13 0 10 0;
#X connect 15 0 0 0;
#X connect 16 0 15 0;
#X connect 17 0 19 0;
#X connect 18 0 17 0;
#X connect 20 0 21 0;
#X connect 22 0 24 0;
#X connect 23 0 22 0;
#X connect 25 0 26 0;
#X connect 26 0 29 0;
#X connect 27 0 30 0;
#X connect 28 0 27 0;
#X connect 31 0 20 0;
#X restore 47 260 pd oscReceive;
#X obj 47 154 tgl 15 0 empty empty empty 17 7 0 10 -262144 -1 -1 1
1;
#X msg 47 179 \; pd dsp \$1;
#X msg 1780 565 2;
#X msg 1821 565 4;
#X msg 1863 565 5;
#X msg 1900 566 7;
#X msg 1941 566 9;
#X msg 1983 566 11;
#X msg 2017 566 12;
#X obj 1746 397 r osctrig;
#X obj 44 396 oscformat PD message;
#X msg 76 357 set PD message;
#N canvas 727 97 450 300 oscSend 0;
#X msg 158 207 disconnect;
#X obj 61 253 netsend -u -b;
#X obj 59 55 list prepend send;
#X obj 59 80 list trim;
#X msg 150 175 connect 127.0.0.1 8001;
#X obj 59 29 r oscOut;
#X text 301 163 send to port 8001;
#X msg 147 148 connect localhost 8001;
#X obj 147 108 loadbang;
#X connect 0 0 1 0;
#X connect 2 0 3 0;
#X connect 3 0 1 0;
#X connect 4 0 1 0;
#X connect 5 0 2 0;
#X connect 7 0 1 0;
#X connect 8 0 7 0;
#X restore 47 236 pd oscSend;
#X obj 44 431 s oscOut;
#X obj 1707 832 osc~;
#X obj 1793 830 osc~;
#X obj 1795 803 * 1.5;
#X text 1742 370 Tirgger when picking up rotating cube...;
#N canvas 210 75 1024 886 synth1 0;
#N canvas 816 130 504 454 oscillators 0;
#X obj 206 2 inlet;
#X obj 194 487 outlet~;
#X obj 205 385 *~;
#X obj 342 390 *~;
#X obj 60 380 *~;
#X obj 83 349 receive oscgain1;
#X obj 224 349 receive oscgain2;
#X obj 362 349 receive oscgain3;
#X obj 55 174 +;
#X obj 74 110 receive oscpitch1;
#X obj 206 174 +;
#X obj 344 172 +;
#X floatatom 206 28 5 0 0 0 - - -;
#X obj 54 198 mtof;
#X obj 344 196 mtof;
#X obj 205 199 mtof;
#X floatatom 10 233 5 0 0 0 - - -;
#X obj 224 107 receive oscpitch2;
#X obj 361 113 receive oscpitch3;
#X obj 45 134 bng 15 250 50 0 empty empty empty 17 7 0 10 -262144 -1
-1;
#X obj 351 141 bng 15 250 50 0 empty empty empty 17 7 0 10 -262144
-1 -1;
#X obj 211 135 bng 15 250 50 0 empty empty empty 17 7 0 10 -262144
-1 -1;
#X obj 341 228 phasor~;
#X obj 341 249 *~ 2;
#X obj 341 270 -~ 1;
#X obj 205 229 phasor~;
#X obj 205 250 *~ 2;
#X obj 205 271 -~ 1;
#X obj 55 227 osc~;
#X obj 463 248 loadbang;
#X msg 464 308 0.5;
#X connect 0 0 12 0;
#X connect 2 0 1 0;
#X connect 3 0 1 0;
#X connect 4 0 1 0;
#X connect 5 0 4 1;
#X connect 6 0 2 1;
#X connect 7 0 3 1;
#X connect 8 0 13 0;
#X connect 9 0 8 1;
#X connect 9 0 19 0;
#X connect 10 0 15 0;
#X connect 11 0 14 0;
#X connect 12 0 10 0;
#X connect 12 0 8 0;
#X connect 12 0 11 0;
#X connect 13 0 16 0;
#X connect 13 0 28 0;
#X connect 14 0 22 0;
#X connect 15 0 25 0;
#X connect 17 0 10 1;
#X connect 17 0 21 0;
#X connect 18 0 11 1;
#X connect 18 0 20 0;
#X connect 19 0 8 0;
#X connect 20 0 11 0;
#X connect 21 0 10 0;
#X connect 22 0 23 0;
#X connect 23 0 24 0;
#X connect 24 0 3 0;
#X connect 25 0 26 0;
#X connect 26 0 27 0;
#X connect 27 0 2 0;
#X connect 28 0 4 0;
#X connect 29 0 30 0;
#X connect 30 0 3 1;
#X connect 30 0 2 1;
#X connect 30 0 4 1;
#X restore 460 257 pd oscillators;
#X obj 452 1342 dac~;
#N canvas 75 124 712 563 distortion 0;
#X obj 147 32 inlet~;
#X obj 206 414 outlet~;
#X obj 233 166 expr~ tanh($v1);
#X floatatom 234 87 5 0 0 0 - - -;
#X obj 233 142 *~;
#X text 275 72 Distortion Amount;
#X obj 245 49 receive distortionAmnt;
#X obj 80 244 expr 1 - $f1;
#X obj 29 300 *~;
#X floatatom 69 273 5 0 0 0 - - -;
#X text 106 276 "dry" signal;
#X obj 299 284 *~;
#X floatatom 326 257 5 0 0 0 - - -;
#X text 334 285 wet;
#X floatatom 449 174 5 0 0 0 - - -;
#X obj 448 147 receive distortionWetDry;
#X obj 476 48 loadbang;
#X msg 476 73 5.9;
#X msg 521 84 1;
#X connect 0 0 4 0;
#X connect 0 0 8 0;
#X connect 2 0 11 0;
#X connect 3 0 4 1;
#X connect 4 0 2 0;
#X connect 6 0 3 0;
#X connect 7 0 9 0;
#X connect 8 0 1 0;
#X connect 9 0 8 1;
#X connect 11 0 1 0;
#X connect 12 0 11 1;
#X connect 14 0 7 0;
#X connect 14 0 12 0;
#X connect 15 0 14 0;
#X connect 16 0 17 0;
#X connect 16 0 18 0;
#X connect 17 0 3 0;
#X connect 18 0 14 0;
#X restore 457 396 pd distortion;
#N canvas 940 295 740 505 reverb 0;
#X obj 162 49 inlet~;
#X obj 144 364 outlet~;
#X floatatom 444 156 0 0 120 0 - - -;
#X text 485 156 level \, dB;
#X floatatom 472 173 0 0 100 0 - - -;
#X text 513 173 liveness \, 0-100;
#X floatatom 507 197 4 0 5000 0 - - -;
#X floatatom 542 220 0 0 100 0 - - -;
#X text 555 195 crossover frequency \, Hz.;
#X text 578 222 HF damping \, percent;
#X obj 235 233 rev3~ 100 90 3000 20;
#X obj 247 331 *~;
#X floatatom 317 299 5 0 0 0 - - -;
#X obj 26 288 *~;
#X floatatom 66 261 5 0 0 0 - - -;
#X text 355 299 wet reverb signal;
#X text 103 264 "dry" signal;
#X obj 409 32 receive reverbWetDry;
#X floatatom 410 59 5 0 0 0 - - -;
#X obj 82 215 expr 1 - $f1;
#X obj 340 3 loadbang;
#X msg 340 33 0.2;
#X connect 0 0 13 0;
#X connect 0 0 10 0;
#X connect 2 0 10 2;
#X connect 4 0 10 3;
#X connect 6 0 10 4;
#X connect 7 0 10 5;
#X connect 10 0 11 0;
#X connect 10 1 11 0;
#X connect 10 2 11 0;
#X connect 10 3 11 0;
#X connect 11 0 1 0;
#X connect 12 0 11 1;
#X connect 13 0 1 0;
#X connect 14 0 13 1;
#X connect 17 0 18 0;
#X connect 18 0 12 0;
#X connect 18 0 19 0;
#X connect 19 0 14 0;
#X connect 20 0 21 0;
#X connect 21 0 18 0;
#X restore 490 1173 pd reverb;
#X obj 588 206 s oscpitch1;
#X floatatom 588 179 5 0 0 0 - - -;
#X floatatom 589 241 5 0 0 0 - - -;
#X obj 589 268 s oscpitch2;
#X floatatom 589 332 5 0 0 0 - - -;
#X obj 588 357 s oscpitch3;
#X obj 497 1084 *~;
#X floatatom 691 1010 5 0 0 0 - - -;
#X floatatom 672 981 5 0 0 0 - - -;
#X floatatom 655 956 5 0 0 0 - - -;
#X floatatom 620 909 5 0 0 0 - - -;
#X floatatom 638 934 5 0 0 0 - - -;
#X text 658 907 peak level;
#X text 679 929 attack duration (ms);
#X text 693 951 decay duration (ms);
#X text 713 977 sustain level (% of peak);
#X text 725 1007 release duration (ms);
#N canvas 251 52 707 458 envelope_adsr 0;
#X obj 209 53 moses;
#X obj 112 56 inlet;
#X obj 112 92 sel 0;
#X msg 111 130 stop;
#X obj 209 93 t b b;
#X obj 258 125 t b;
#X obj 174 209 f \$1;
#X obj 174 245 pack 0 \$2;
#X msg 125 245 0;
#X obj 337 145 inlet;
#X obj 377 145 inlet;
#X obj 421 145 inlet;
#X obj 461 145 inlet;
#X obj 314 239 del \$2;
#X obj 314 265 f \$4;
#X obj 390 268 * \$1;
#X obj 389 299 pack 0 \$3;
#X obj 472 301 pack 0 \$5;
#X obj 518 269 inlet;
#X obj 354 358 line~;
#X obj 354 386 outlet~;
#X obj 313 299 * 0.5;
#X connect 0 0 4 0;
#X connect 0 1 5 0;
#X connect 1 0 2 0;
#X connect 2 0 3 0;
#X connect 2 0 17 0;
#X connect 2 1 0 0;
#X connect 3 0 13 0;
#X connect 4 0 5 0;
#X connect 4 1 8 0;
#X connect 5 0 6 0;
#X connect 5 0 13 0;
#X connect 6 0 7 0;
#X connect 7 0 19 0;
#X connect 8 0 19 0;
#X connect 9 0 15 1;
#X connect 9 0 6 1;
#X connect 10 0 13 1;
#X connect 10 0 7 1;
#X connect 11 0 16 1;
#X connect 12 0 14 1;
#X connect 13 0 14 0;
#X connect 14 0 21 0;
#X connect 15 0 16 0;
#X connect 16 0 19 0;
#X connect 17 0 19 0;
#X connect 18 0 17 1;
#X connect 19 0 20 0;
#X connect 21 0 15 0;
#X restore 597 1048 pd envelope_adsr;
#X msg 720 877 1;
#X msg 757 876 100;
#X msg 798 876 0.8;
#X obj 743 834 loadbang;
#X obj 460 224 r pitch;
#X floatatom 21 413 5 0 0 0 - - -;
#X msg 102 216 0;
#X obj 78 494 +;
#X obj 77 549 s pitch;
#X floatatom 78 522 5 0 0 0 - - -;
#X obj 585 886 tgl 15 0 empty empty empty 17 7 0 10 -262144 -1 -1 0
1;
#N canvas 270 86 1178 553 chorus 0;
#X obj 23 259 delwrite~ \$0-delay 1000;
#X obj 221 106 osc~ 0.05;
#X obj 221 131 *~ 10;
#X obj 376 130 *~ 10;
#X obj 221 156 +~ 11;
#X obj 376 155 +~ 21;
#X obj 376 105 osc~ 0.08;
#X obj 511 135 *~ 10;
#X obj 511 110 osc~ 0.13;
#X obj 511 160 +~ 13;
#X obj 694 142 *~ 10;
#X obj 694 167 +~ 55;
#X obj 694 117 osc~ 0.03;
#X obj 839 168 +~ 87;
#X obj 839 118 osc~ 0.015;
#X obj 985 114 osc~ 0.12;
#X obj 985 164 +~ 67;
#X obj 985 139 *~ 5;
#X obj 839 143 *~ 15;
#X obj 221 184 vd~ \$0-delay;
#X obj 376 183 vd~ \$0-delay;
#X obj 511 188 vd~ \$0-delay;
#X obj 694 195 vd~ \$0-delay;
#X obj 839 196 vd~ \$0-delay;
#X obj 985 192 vd~ \$0-delay;
#X obj 61 145 nbx 5 14 -1e+037 1e+037 0 0 empty empty empty 0 -8 0
10 -262144 -1 -1 0 256;
#X obj 22 92 inlet~;
#X obj 532 418 outlet~;
#X obj 630 416 outlet~;
#X obj 271 269 *~ 0.05;
#X obj 214 270 *~ 0.95;
#X obj 1032 261 *~ 0.95;
#X obj 975 262 *~ 0.05;
#X obj 884 262 *~ 0.85;
#X obj 368 266 *~ 0.85;
#X obj 498 267 *~ 0.7;
#X obj 744 263 *~ 0.7;
#X obj 827 263 *~ 0.15;
#X obj 687 264 *~ 0.3;
#X obj 555 266 *~ 0.3;
#X obj 425 265 *~ 0.15;
#X obj 222 221 /~ 6;
#X obj 375 224 /~ 6;
#X obj 512 221 /~ 6;
#X obj 696 226 /~ 6;
#X obj 841 224 /~ 6;
#X obj 988 225 /~ 6;
#X obj 23 172 *~ 1;
#X connect 1 0 2 0;
#X connect 2 0 4 0;
#X connect 3 0 5 0;
#X connect 4 0 19 0;
#X connect 5 0 20 0;
#X connect 6 0 3 0;
#X connect 7 0 9 0;
#X connect 8 0 7 0;
#X connect 9 0 21 0;
#X connect 10 0 11 0;
#X connect 11 0 22 0;
#X connect 12 0 10 0;
#X connect 13 0 23 0;
#X connect 14 0 18 0;
#X connect 15 0 17 0;
#X connect 16 0 24 0;
#X connect 17 0 16 0;
#X connect 18 0 13 0;
#X connect 19 0 41 0;
#X connect 20 0 42 0;
#X connect 21 0 43 0;
#X connect 22 0 44 0;
#X connect 23 0 45 0;
#X connect 24 0 46 0;
#X connect 25 0 47 1;
#X connect 26 0 47 0;
#X connect 29 0 28 0;
#X connect 30 0 27 0;
#X connect 31 0 28 0;
#X connect 32 0 27 0;
#X connect 33 0 28 0;
#X connect 34 0 27 0;
#X connect 35 0 27 0;
#X connect 36 0 28 0;
#X connect 37 0 27 0;
#X connect 38 0 27 0;
#X connect 39 0 28 0;
#X connect 40 0 28 0;
#X connect 41 0 30 0;
#X connect 41 0 29 0;
#X connect 42 0 34 0;
#X connect 42 0 40 0;
#X connect 43 0 35 0;
#X connect 43 0 39 0;
#X connect 44 0 36 0;
#X connect 44 0 38 0;
#X connect 45 0 33 0;
#X connect 45 0 37 0;
#X connect 46 0 31 0;
#X connect 46 0 32 0;
#X connect 47 0 0 0;
#X restore 456 568 pd chorus;
#N canvas 124 135 619 645 flanger 0;
#X obj 75 208 +~ 1;
#X obj 75 235 *~ 0.5;
#X obj 74 417 vd~ \$0-delay1, f 16;
#X text 73 108 Low Frequency Oscillator;
#X text 203 263 Depth (ms);
#X obj 74 513 *~ 1;
#X text 87 546 y[n] = x[n] + ax[n-t];
#X text 163 487 Feedback (0-1);
#X obj 75 181 osc~ 1;
#X text 117 513 ax[n-t];
#X text 131 156 Rate (Hz);
#X obj 45 545 +~, f 4;
#X obj 75 159 nbx 5 14 -1e+037 1e+037 0 0 empty \$0-rate empty 0 -8
0 10 -262144 -1 -1 0.05 256;
#X obj 144 267 nbx 5 14 0 1e+037 0 0 empty \$0-depth empty 0 -8 0 10
-262144 -1 -1 0.75 256;
#X obj 147 356 nbx 5 14 0 1e+037 0 0 empty \$0-shift empty 0 -8 0 10
-262144 -1 -1 0 256;
#X obj 103 489 nbx 5 14 0 1 0 0 empty \$0-feedback empty 0 -8 0 10
-262144 -1 -1 0.025 256;
#X obj 75 294 *~ 1, f 9;
#X obj 74 377 +~ 0.001, f 11;
#X obj 51 18 inlet~;
#X obj 46 606 outlet~;
#X obj 144 239 receive flangerDepth;
#X obj 147 327 receive flangerShift;
#X obj 105 455 receive flangerFeedback;
#X obj 79 63 delwrite~ \$0-delay1 5000;
#X obj 75 132 receive flangerRate;
#X msg 436 174 0.05;
#X obj 489 127 loadbang;
#X msg 438 297 0.025;
#X obj 363 411 r oscXPos;
#X msg 433 222 0.75;
#X connect 0 0 1 0;
#X connect 1 0 16 0;
#X connect 2 0 5 0;
#X connect 5 0 11 1;
#X connect 8 0 0 0;
#X connect 11 0 19 0;
#X connect 12 0 8 0;
#X connect 13 0 16 1;
#X connect 14 0 17 1;
#X connect 15 0 5 1;
#X connect 16 0 17 0;
#X connect 17 0 2 0;
#X connect 18 0 11 0;
#X connect 18 0 23 0;
#X connect 20 0 13 0;
#X connect 21 0 14 0;
#X connect 22 0 15 0;
#X connect 24 0 12 0;
#X connect 25 0 12 0;
#X connect 26 0 25 0;
#X connect 26 0 29 0;
#X connect 26 0 27 0;
#X connect 27 0 15 0;
#X connect 28 0 15 0;
#X connect 29 0 13 0;
#X restore 457 439 pd flanger;
#N canvas 70 339 580 425 xpand 0;
#X obj 77 49 inlet~;
#X obj 178 50 inlet~;
#X obj 131 110 +~;
#X obj 126 149 /~ 2;
#X obj 78 182 -~;
#X obj 173 182 -~;
#X obj 74 231 *~ 0;
#X obj 174 226 *~ 0;
#X obj 171 338 outlet~;
#X obj 71 337 outlet~;
#X floatatom 284 114 5 0 0 0 - - -;
#X obj 284 87 receive xpandAmount;
#X obj 412 33 loadbang;
#X msg 412 59 2;
#X connect 0 0 2 0;
#X connect 0 0 4 0;
#X connect 1 0 2 1;
#X connect 1 0 5 1;
#X connect 2 0 3 0;
#X connect 3 0 4 1;
#X connect 3 0 5 0;
#X connect 3 0 8 0;
#X connect 3 0 9 0;
#X connect 4 0 6 0;
#X connect 5 0 7 0;
#X connect 6 0 9 0;
#X connect 7 0 8 0;
#X connect 10 0 7 1;
#X connect 10 0 6 1;
#X connect 11 0 10 0;
#X connect 12 0 13 0;
#X connect 13 0 10 0;
#X restore 456 645 pd xpand;
#X obj 419 1086 *~;
#N canvas 654 306 740 505 reverb 0;
#X obj 162 49 inlet~;
#X obj 144 364 outlet~;
#X floatatom 444 156 0 0 120 0 - - -;
#X text 485 156 level \, dB;
#X floatatom 472 173 0 0 100 0 - - -;
#X text 513 173 liveness \, 0-100;
#X floatatom 507 197 4 0 5000 0 - - -;
#X floatatom 542 220 0 0 100 0 - - -;
#X text 555 195 crossover frequency \, Hz.;
#X text 578 222 HF damping \, percent;
#X obj 235 233 rev3~ 100 90 3000 20;
#X obj 247 331 *~;
#X floatatom 317 299 5 0 0 0 - - -;
#X obj 26 288 *~;
#X floatatom 66 261 5 0 0 0 - - -;
#X text 355 299 wet reverb signal;
#X text 103 264 "dry" signal;
#X obj 409 32 receive reverbWetDry;
#X floatatom 410 59 5 0 0 0 - - -;
#X obj 82 215 expr 1 - $f1;
#X obj 340 3 loadbang;
#X msg 340 33 0.2;
#X connect 0 0 13 0;
#X connect 0 0 10 0;
#X connect 2 0 10 2;
#X connect 4 0 10 3;
#X connect 6 0 10 4;
#X connect 7 0 10 5;
#X connect 10 0 11 0;
#X connect 10 1 11 0;
#X connect 10 2 11 0;
#X connect 10 3 11 0;
#X connect 11 0 1 0;
#X connect 12 0 11 1;
#X connect 13 0 1 0;
#X connect 14 0 13 1;
#X connect 17 0 18 0;
#X connect 18 0 12 0;
#X connect 18 0 19 0;
#X connect 19 0 14 0;
#X connect 20 0 21 0;
#X connect 21 0 18 0;
#X restore 403 1174 pd reverb;
#N canvas 81 165 704 767 phasor 0;
#X obj 113 164 +~ 1;
#X obj 113 191 *~ 0.5;
#X text 110 70 Low Frequency Oscillator;
#X text 199 487 x[n-t];
#X text 188 365 t (ms);
#X text 241 219 Depth (ms);
#X text 48 527 x[n];
#X obj 113 561 *~ 1;
#X text 126 600 y[n] = x[n] + ax[n-t];
#X text 228 537 Feedback (0-1);
#X obj 113 137 osc~ 1;
#X text 156 561 ax[n-t];
#X text 169 112 Rate (Hz);
#X text 240 304 Shift (ms);
#X obj 84 599 +~, f 4;
#X obj 113 115 nbx 5 14 -1e+037 1e+037 0 0 empty \$0-rate empty 0 -8
0 10 -262144 -1 -1 0.05 256;
#X obj 182 223 nbx 5 14 0 1e+037 0 0 empty \$0-depth empty 0 -8 0 10
-262144 -1 -1 0.3 256;
#X obj 180 308 nbx 5 14 0 1e+037 0 0 empty \$0-shift empty 0 -8 0 10
-262144 -1 -1 0 256;
#X obj 168 539 nbx 5 14 0 1 0 0 empty \$0-feedback empty 0 -8 0 10
-262144 -1 -1 0.025 256;
#N canvas 0 23 622 635 apset~ 0;
#N canvas 0 22 450 300 ap~ 0;
#X obj 127 160 rpole~;
#X obj 127 135 rzero_rev~;
#X obj 127 92 inlet~;
#X obj 127 185 outlet~;
#X obj 204 92 inlet~;
#X connect 0 0 3 0;
#X connect 1 0 0 0;
#X connect 2 0 1 0;
#X connect 4 0 1 1;
#X connect 4 0 0 1;
#X restore 155 36 pd ap~;
#N canvas 0 22 450 300 ap~ 0;
#X obj 127 160 rpole~;
#X obj 127 135 rzero_rev~;
#X obj 127 92 inlet~;
#X obj 127 185 outlet~;
#X obj 204 92 inlet~;
#X connect 0 0 3 0;
#X connect 1 0 0 0;
#X connect 2 0 1 0;
#X connect 4 0 1 1;
#X connect 4 0 0 1;
#X restore 155 66 pd ap~;
#N canvas 0 22 450 300 ap~ 0;
#X obj 127 160 rpole~;
#X obj 127 135 rzero_rev~;
#X obj 127 92 inlet~;
#X obj 127 185 outlet~;
#X obj 204 92 inlet~;
#X connect 0 0 3 0;
#X connect 1 0 0 0;
#X connect 2 0 1 0;
#X connect 4 0 1 1;
#X connect 4 0 0 1;
#X restore 155 96 pd ap~;
#N canvas 0 22 450 300 ap~ 0;
#X obj 127 160 rpole~;
#X obj 127 135 rzero_rev~;
#X obj 127 92 inlet~;
#X obj 127 185 outlet~;
#X obj 204 92 inlet~;
#X connect 0 0 3 0;
#X connect 1 0 0 0;
#X connect 2 0 1 0;
#X connect 4 0 1 1;
#X connect 4 0 0 1;
#X restore 155 126 pd ap~;
#N canvas 0 22 450 300 ap~ 0;
#X obj 127 160 rpole~;
#X obj 127 135 rzero_rev~;
#X obj 127 92 inlet~;
#X obj 127 185 outlet~;
#X obj 204 92 inlet~;
#X connect 0 0 3 0;
#X connect 1 0 0 0;
#X connect 2 0 1 0;
#X connect 4 0 1 1;
#X connect 4 0 0 1;
#X restore 155 156 pd ap~;
#N canvas 0 22 450 300 ap~ 0;
#X obj 127 160 rpole~;
#X obj 127 135 rzero_rev~;
#X obj 127 92 inlet~;
#X obj 127 185 outlet~;
#X obj 204 92 inlet~;
#X connect 0 0 3 0;
#X connect 1 0 0 0;
#X connect 2 0 1 0;
#X connect 4 0 1 1;
#X connect 4 0 0 1;
#X restore 155 186 pd ap~;
#N canvas 0 22 450 300 ap~ 0;
#X obj 127 160 rpole~;
#X obj 127 135 rzero_rev~;
#X obj 127 92 inlet~;
#X obj 127 185 outlet~;
#X obj 204 92 inlet~;
#X connect 0 0 3 0;
#X connect 1 0 0 0;
#X connect 2 0 1 0;
#X connect 4 0 1 1;
#X connect 4 0 0 1;
#X restore 155 216 pd ap~;
#N canvas 0 22 450 300 ap~ 0;
#X obj 127 160 rpole~;
#X obj 127 135 rzero_rev~;
#X obj 127 92 inlet~;
#X obj 127 185 outlet~;
#X obj 204 92 inlet~;
#X connect 0 0 3 0;
#X connect 1 0 0 0;
#X connect 2 0 1 0;
#X connect 4 0 1 1;
#X connect 4 0 0 1;
#X restore 155 246 pd ap~;
#N canvas 0 22 450 300 ap~ 0;
#X obj 127 160 rpole~;
#X obj 127 135 rzero_rev~;
#X obj 127 92 inlet~;
#X obj 127 185 outlet~;
#X obj 204 92 inlet~;
#X connect 0 0 3 0;
#X connect 1 0 0 0;
#X connect 2 0 1 0;
#X connect 4 0 1 1;
#X connect 4 0 0 1;
#X restore 155 276 pd ap~;
#N canvas 0 22 450 300 ap~ 0;
#X obj 127 160 rpole~;
#X obj 127 135 rzero_rev~;
#X obj 127 92 inlet~;
#X obj 127 185 outlet~;
#X obj 204 92 inlet~;
#X connect 0 0 3 0;
#X connect 1 0 0 0;
#X connect 2 0 1 0;
#X connect 4 0 1 1;
#X connect 4 0 0 1;
#X restore 155 306 pd ap~;
#N canvas 0 22 450 300 ap~ 0;
#X obj 127 160 rpole~;
#X obj 127 135 rzero_rev~;
#X obj 127 92 inlet~;
#X obj 127 185 outlet~;
#X obj 204 92 inlet~;
#X connect 0 0 3 0;
#X connect 1 0 0 0;
#X connect 2 0 1 0;
#X connect 4 0 1 1;
#X connect 4 0 0 1;
#X restore 155 336 pd ap~;
#N canvas 0 22 450 300 ap~ 0;
#X obj 127 160 rpole~;
#X obj 127 135 rzero_rev~;
#X obj 127 92 inlet~;
#X obj 127 185 outlet~;
#X obj 204 92 inlet~;
#X connect 0 0 3 0;
#X connect 1 0 0 0;
#X connect 2 0 1 0;
#X connect 4 0 1 1;
#X connect 4 0 0 1;
#X restore 155 366 pd ap~;
#N canvas 0 22 450 300 ap~ 0;
#X obj 127 160 rpole~;
#X obj 127 135 rzero_rev~;
#X obj 127 92 inlet~;
#X obj 127 185 outlet~;
#X obj 204 92 inlet~;
#X connect 0 0 3 0;
#X connect 1 0 0 0;
#X connect 2 0 1 0;
#X connect 4 0 1 1;
#X connect 4 0 0 1;
#X restore 155 396 pd ap~;
#N canvas 0 22 450 300 ap~ 0;
#X obj 127 160 rpole~;
#X obj 127 135 rzero_rev~;
#X obj 127 92 inlet~;
#X obj 127 185 outlet~;
#X obj 204 92 inlet~;
#X connect 0 0 3 0;
#X connect 1 0 0 0;
#X connect 2 0 1 0;
#X connect 4 0 1 1;
#X connect 4 0 0 1;
#X restore 155 426 pd ap~;
#N canvas 0 22 450 300 ap~ 0;
#X obj 127 160 rpole~;
#X obj 127 135 rzero_rev~;
#X obj 127 92 inlet~;
#X obj 127 185 outlet~;
#X obj 204 92 inlet~;
#X connect 0 0 3 0;
#X connect 1 0 0 0;
#X connect 2 0 1 0;
#X connect 4 0 1 1;
#X connect 4 0 0 1;
#X restore 155 456 pd ap~;
#N canvas 0 22 450 300 ap~ 0;
#X obj 127 160 rpole~;
#X obj 127 135 rzero_rev~;
#X obj 127 92 inlet~;
#X obj 127 185 outlet~;
#X obj 204 92 inlet~;
#X connect 0 0 3 0;
#X connect 1 0 0 0;
#X connect 2 0 1 0;
#X connect 4 0 1 1;
#X connect 4 0 0 1;
#X restore 155 486 pd ap~;
#X obj 155 6 inlet~;
#X obj 225 6 inlet~;
#X obj 155 511 outlet~;
#X connect 0 0 1 0;
#X connect 1 0 2 0;
#X connect 2 0 3 0;
#X connect 3 0 4 0;
#X connect 4 0 5 0;
#X connect 5 0 6 0;
#X connect 6 0 7 0;
#X connect 7 0 8 0;
#X connect 8 0 9 0;
#X connect 9 0 10 0;
#X connect 10 0 11 0;
#X connect 11 0 12 0;
#X connect 12 0 13 0;
#X connect 13 0 14 0;
#X connect 14 0 15 0;
#X connect 15 0 18 0;
#X connect 16 0 0 0;
#X connect 17 0 0 1;
#X connect 17 0 1 1;
#X connect 17 0 2 1;
#X connect 17 0 3 1;
#X connect 17 0 4 1;
#X connect 17 0 5 1;
#X connect 17 0 6 1;
#X connect 17 0 7 1;
#X connect 17 0 8 1;
#X connect 17 0 9 1;
#X connect 17 0 10 1;
#X connect 17 0 11 1;
#X connect 17 0 12 1;
#X connect 17 0 13 1;
#X connect 17 0 14 1;
#X connect 17 0 15 1;
#X restore 113 488 pd apset~;
#X obj 113 250 *~ 0.3, f 9;
#X obj 114 330 +~ 0.6, f 11;
#X obj 181 464 clip~ 0 1;
#X obj 67 37 inlet~;
#X obj 82 672 outlet~;
#X obj 114 91 receive phasorRate;
#X obj 185 197 receive phasorDepth;
#X obj 182 281 receive phasorShift;
#X obj 168 515 receive phasorFeedback;
#X msg 435 199 0.05;
#X msg 442 314 0.025;
#X obj 488 155 loadbang;
#X obj 385 462 r oscZPos;
#X msg 437 234 0.3;
#X connect 0 0 1 0;
#X connect 1 0 20 0;
#X connect 7 0 14 1;
#X connect 10 0 0 0;
#X connect 14 0 24 0;
#X connect 15 0 10 0;
#X connect 16 0 20 1;
#X connect 17 0 21 1;
#X connect 18 0 7 1;
#X connect 19 0 7 0;
#X connect 20 0 21 0;
#X connect 21 0 22 0;
#X connect 22 0 19 1;
#X connect 23 0 14 0;
#X connect 23 0 19 0;
#X connect 25 0 15 0;
#X connect 26 0 16 0;
#X connect 27 0 17 0;
#X connect 28 0 18 0;
#X connect 29 0 15 0;
#X connect 30 0 18 0;
#X connect 31 0 29 0;
#X connect 31 0 30 0;
#X connect 31 0 33 0;
#X connect 32 0 18 0;
#X connect 33 0 16 0;
#X restore 457 484 pd phasor;
#X obj 139 93 f;
#X obj 182 95 + 1;
#X obj 139 23 tgl 15 0 empty empty empty 17 7 0 10 -262144 -1 -1 0
1;
#X msg 129 212 4;
#X msg 165 213 7;
#X msg 200 214 11;
#X msg 239 212 12;
#X msg 314 213 7;
#X msg 349 214 4;
#X obj 141 131 mod 8;
#X msg 279 211 11;
#X obj 137 163 select 0 1 2 3 4 5 6 7, f 27;
#X obj 207 411 t b f;
#X obj 619 100 loadbang;
#X msg 587 305 -12;
#X msg 30 373 48;
#X obj 21 342 loadbang;
#X msg 69 369 60;
#X msg 112 377 72;
#X floatatom 213 21 5 0 0 0 - - -;
#X obj 136 56 metro 180;
#X obj 495 789 bp~ 1000 10;
#X floatatom 544 750 5 0 0 0 - - -;
#X obj 408 790 bp~ 1000 10;
#X obj 137 548 s envTrigger;
#X obj 541 694 * 4000;
#X obj 541 718 + 250;
#X obj 541 667 r oscXPos;
#X floatatom 325 -221 5 0 0 0 - - -;
#X obj 325 -254 r osctrig;
#X obj 325 -194 select 0 1 2 3 4 5 6 7 8;
#X msg 398 -149 7;
#X msg 315 -150 12;
#X msg 439 -150 4;
#X msg 357 -149 24;
#X msg 427 -109 -5;
#X msg 587 146 0;
#X obj 422 1288 *~ 0.85;
#X obj 481 1286 *~ 0.85;
#X msg 837 875 7000;
#X obj 641 812 r osctrig;
#X msg 643 845 1;
#X text 398 -248 Receiving triggers from unity osc;
#X text 607 668 Adjust filter central frequency based on balls x position.
;
#X text 12 -11 The sequencer triggered by unity osc;
#X text 612 78 Setting the oscillator pitches of the synth;
#X connect 0 0 2 0;
#X connect 2 0 34 0;
#X connect 3 0 77 0;
#X connect 5 0 4 0;
#X connect 6 0 7 0;
#X connect 8 0 9 0;
#X connect 10 0 3 0;
#X connect 11 0 21 5;
#X connect 12 0 21 4;
#X connect 13 0 21 3;
#X connect 14 0 21 1;
#X connect 15 0 21 2;
#X connect 21 0 10 1;
#X connect 21 0 36 1;
#X connect 22 0 14 0;
#X connect 23 0 15 0;
#X connect 23 0 13 0;
#X connect 24 0 12 0;
#X connect 25 0 22 0;
#X connect 25 0 23 0;
#X connect 25 0 24 0;
#X connect 25 0 78 0;
#X connect 26 0 0 0;
#X connect 27 0 29 0;
#X connect 28 0 51 0;
#X connect 29 0 31 0;
#X connect 31 0 30 0;
#X connect 32 0 21 0;
#X connect 33 0 35 0;
#X connect 33 1 35 1;
#X connect 34 0 38 0;
#X connect 35 0 62 0;
#X connect 35 1 60 0;
#X connect 36 0 37 0;
#X connect 37 0 76 0;
#X connect 38 0 33 0;
#X connect 39 0 40 0;
#X connect 39 0 48 0;
#X connect 40 0 39 1;
#X connect 41 0 59 0;
#X connect 42 0 51 0;
#X connect 43 0 51 0;
#X connect 44 0 51 0;
#X connect 45 0 51 0;
#X connect 46 0 51 0;
#X connect 47 0 51 0;
#X connect 48 0 50 0;
#X connect 49 0 51 0;
#X connect 50 0 28 0;
#X connect 50 1 42 0;
#X connect 50 2 43 0;
#X connect 50 3 44 0;
#X connect 50 4 45 0;
#X connect 50 5 49 0;
#X connect 50 6 46 0;
#X connect 50 7 47 0;
#X connect 51 0 29 0;
#X connect 51 0 63 0;
#X connect 51 1 29 1;
#X connect 52 0 75 0;
#X connect 52 0 53 0;
#X connect 53 0 8 0;
#X connect 54 0 27 0;
#X connect 55 0 54 0;
#X connect 56 0 27 0;
#X connect 57 0 27 0;
#X connect 58 0 59 1;
#X connect 59 0 39 0;
#X connect 60 0 10 0;
#X connect 61 0 62 1;
#X connect 61 0 60 1;
#X connect 62 0 36 0;
#X connect 64 0 65 0;
#X connect 65 0 61 0;
#X connect 66 0 64 0;
#X connect 67 0 69 0;
#X connect 68 0 67 0;
#X connect 69 1 41 0;
#X connect 69 2 71 0;
#X connect 69 3 56 0;
#X connect 69 4 73 0;
#X connect 69 4 54 0;
#X connect 69 5 70 0;
#X connect 69 5 74 0;
#X connect 69 6 72 0;
#X connect 69 8 28 0;
#X connect 69 8 41 0;
#X connect 69 8 32 0;
#X connect 70 0 5 0;
#X connect 71 0 5 0;
#X connect 72 0 5 0;
#X connect 73 0 5 0;
#X connect 74 0 8 0;
#X connect 75 0 5 0;
#X connect 76 0 1 0;
#X connect 77 0 1 1;
#X connect 78 0 11 0;
#X connect 79 0 80 0;
#X connect 80 0 32 0;
#X restore 1772 269 pd synth1;
#X msg 1895 741 0.65 25 \, 0.1 25 40 \, 0 700 100;
#X msg 2090 569 60;
#X text 1745 231 Implementation of a digitial synthesizer with common
effects processing.;
#X obj 223 880 vline~;
#X obj 617 872 *~;
#X obj 610 921 dac~;
#X obj 559 782 noise~;
#X obj 231 628 vsl 15 128 1000 2000 0 0 empty empty empty 0 -9 0 10
-262144 -1 -1 6413 1;
#X obj 275 627 vsl 15 128 1000 2000 0 0 empty empty empty 0 -9 0 10
-262144 -1 -1 6413 1;
#X floatatom 231 776 5 1000 2000 0 - - -;
#X floatatom 275 776 5 1000 2000 0 - - -;
#X obj 321 626 vsl 15 128 1000 2000 0 0 empty empty empty 0 -9 0 10
-262144 -1 -1 6413 1;
#X floatatom 321 777 5 1000 2000 0 - - -;
#X text 218 627 A;
#X text 261 625 S;
#X text 308 625 R;
#X obj 283 534 bng 15 250 50 0 empty empty empty 17 7 0 10 -262144
-1 -1;
#X obj 223 925 throw~ sound;
#X obj 656 835 catch~ sound;
#X msg 222 847 0.1 \$1 \, 0.06 \$2 \$1 \, 0 \$3 \$2;
#X obj 223 813 pack f f f;
#X text 302 537 (Attack ms \, Sustain ms \, Release ms);
#X text 228 832 0.1 is the max volume \, and 0.06 is the decay volume
;
#X text 303 926 vline info is thrown to catch sound;
#X obj 968 885 vline~;
#X obj 1362 877 *~;
#X obj 1355 926 dac~;
#X obj 976 633 vsl 15 128 0 2000 0 0 empty empty empty 0 -9 0 10 -262144
-1 -1 6350 1;
#X obj 1020 632 vsl 15 128 0 2000 0 0 empty empty empty 0 -9 0 10 -262144
-1 -1 6350 1;
#X floatatom 976 781 5 0 0 0 - - -;
#X floatatom 1020 781 5 0 0 0 - - -;
#X obj 1066 631 vsl 15 128 0 2000 0 0 empty empty empty 0 -9 0 10 -262144
-1 -1 6350 1;
#X floatatom 1066 782 5 0 0 0 - - -;
#X text 963 632 A;
#X text 1006 630 S;
#X text 1053 630 R;
#X obj 1024 531 bng 15 250 50 0 empty empty empty 17 7 0 10 -262144
-1 -1;
#X obj 968 818 pack f f f;
#X text 946 512 Unity can send A \, S \, R values here;
#X text 1043 534 (Attack ms \, Sustain ms \, Release ms);
#X text 973 837 0.1 is the max volume \, and 0.06 is the decay volume
;
#X text 1048 931 vline info is thrown to catch sound;
#X obj 1401 840 catch~ sound2;
#X obj 967 930 throw~ sound2;
#X text 338 621 Control Sound with Sliders;
#X obj 577 831 lop~ \$1;
#X floatatom 613 792 5 0 0 0 - - -;
#X obj 610 638 vsl 15 128 0 2000 0 0 empty empty empty 0 -9 0 10 -262144
-1 -1 8500 1;
#X text 571 618 controllable low pass filter;
#X text 272 513 Unity can send A \, S \, R values here;
#X text 341 491 OCEAN;
#X text 1016 495 WIND;
#X obj 854 566 loadbang;
#X msg 967 852 0.1 \$1 \, 0.06 \$2 \$1 \, 0 \$3 \$2;
#X obj 1301 792 noise~;
#X obj 1319 841 lop~ \$1;
#X floatatom 1355 802 5 0 0 0 - - -;
#X obj 1355 651 vsl 15 128 0 2000 0 0 empty empty empty 0 -9 0 10 -262144
-1 -1 9500 1;
#X msg 854 593 1000;
#X text 778 551 init values for A \, S \, R;
#X obj 140 1563 loadbang;
#X text 43 642 init values for A \, S \, R;
#X obj 715 732 loadbang;
#X obj 1462 730 loadbang;
#X text 1274 629 controllable low pass filter;
#X text 662 714 init value for Filter in Hz;
#X text 1409 712 init value for Filter in Hz;
#X msg 1462 757 300;
#X msg 715 759 1500;
#X obj 214 451 r oscplayseq;
#X obj 127 490 bng 15 250 50 0 empty empty empty 17 7 0 10 -262144
-1 -1;
#X obj 157 443 bng 15 250 50 0 empty empty empty 17 7 0 10 -262144
-1 -1;
#X floatatom 127 580 5 1000 2000 0 - - -;
#X obj 127 525 random 1000;
#X obj 127 550 + 1000;
#X obj 306 1435 vline~;
#X obj 314 1183 vsl 15 128 0 2000 0 0 empty empty empty 0 -9 0 10 -262144
-1 -1 0 1;
#X obj 358 1182 vsl 15 128 0 2000 0 0 empty empty empty 0 -9 0 10 -262144
-1 -1 0 1;
#X floatatom 314 1331 5 0 2000 0 - - -;
#X floatatom 358 1331 5 0 2000 0 - - -;
#X obj 404 1181 vsl 15 128 0 2000 0 0 empty empty empty 0 -9 0 10 -262144
-1 -1 0 1;
#X floatatom 404 1332 5 0 2000 0 - - -;
#X text 301 1182 A;
#X text 344 1180 S;
#X text 391 1180 R;
#X obj 366 1089 bng 15 250 50 0 empty empty empty 17 7 0 10 -262144
-1 -1;
#X obj 306 1480 throw~ sound;
#X msg 305 1402 0.1 \$1 \, 0.06 \$2 \$1 \, 0 \$3 \$2;
#X obj 306 1368 pack f f f;
#X text 385 1092 (Attack ms \, Sustain ms \, Release ms);
#X text 311 1387 0.1 is the max volume \, and 0.06 is the decay volume
;
#X text 386 1481 vline info is thrown to catch sound;
#X text 421 1176 Control Sound with Sliders;
#X text 355 1068 Unity can send A \, S \, R values here;
#X text 126 1197 init values for A \, S \, R;
#X obj 297 1006 r oscplayseq;
#X floatatom 256 1133 5 1000 2000 0 - - -;
#X text 424 1046 OCEAN (Static);
#X connect 6 0 29 0;
#X connect 7 0 16 0;
#X connect 7 1 21 0;
#X connect 7 2 22 0;
#X connect 7 3 23 0;
#X connect 7 4 24 0;
#X connect 7 5 25 0;
#X connect 7 6 26 0;
#X connect 7 7 27 0;
#X connect 7 8 16 0;
#X connect 8 0 33 0;
#X connect 8 0 35 0;
#X connect 9 0 10 0;
#X connect 9 0 10 1;
#X connect 11 0 8 0;
#X connect 12 0 11 0;
#X connect 12 0 38 0;
#X connect 13 0 9 1;
#X connect 14 0 12 1;
#X connect 15 0 39 0;
#X connect 16 0 12 0;
#X connect 17 0 7 0;
#X connect 19 0 20 0;
#X connect 21 0 12 0;
#X connect 22 0 12 0;
#X connect 23 0 12 0;
#X connect 24 0 12 0;
#X connect 25 0 12 0;
#X connect 26 0 12 0;
#X connect 27 0 12 0;
#X connect 28 0 17 0;
#X connect 29 0 32 0;
#X connect 30 0 29 0;
#X connect 33 0 9 0;
#X connect 34 0 9 0;
#X connect 35 0 34 0;
#X connect 38 0 13 0;
#X connect 39 0 14 0;
#X connect 41 0 55 0;
#X connect 42 0 43 0;
#X connect 42 0 43 1;
#X connect 44 0 83 0;
#X connect 45 0 47 0;
#X connect 46 0 48 0;
#X connect 47 0 58 0;
#X connect 48 0 58 1;
#X connect 49 0 50 0;
#X connect 50 0 58 2;
#X connect 54 0 45 0;
#X connect 54 0 46 0;
#X connect 54 0 49 0;
#X connect 56 0 42 1;
#X connect 57 0 41 0;
#X connect 58 0 57 0;
#X connect 62 0 81 0;
#X connect 63 0 64 0;
#X connect 63 0 64 1;
#X connect 65 0 67 0;
#X connect 66 0 68 0;
#X connect 67 0 75 0;
#X connect 68 0 75 1;
#X connect 69 0 70 0;
#X connect 70 0 75 2;
#X connect 74 0 65 0;
#X connect 74 0 66 0;
#X connect 74 0 69 0;
#X connect 75 0 91 0;
#X connect 80 0 63 1;
#X connect 83 0 42 0;
#X connect 84 0 83 1;
#X connect 85 0 84 0;
#X connect 90 0 96 0;
#X connect 91 0 62 0;
#X connect 92 0 93 0;
#X connect 93 0 63 0;
#X connect 94 0 93 1;
#X connect 95 0 94 0;
#X connect 96 0 65 0;
#X connect 96 0 66 0;
#X connect 96 0 69 0;
#X connect 100 0 106 0;
#X connect 101 0 105 0;
#X connect 105 0 94 0;
#X connect 106 0 84 0;
#X connect 107 0 54 0;
#X connect 107 0 108 0;
#X connect 108 0 111 0;
#X connect 109 0 108 0;
#X connect 109 0 54 0;
#X connect 110 0 45 0;
#X connect 110 0 46 0;
#X connect 110 0 49 0;
#X connect 111 0 112 0;
#X connect 112 0 110 0;
#X connect 113 0 124 0;
#X connect 114 0 116 0;
#X connect 115 0 117 0;
#X connect 116 0 126 0;
#X connect 117 0 126 1;
#X connect 118 0 119 0;
#X connect 119 0 126 2;
#X connect 123 0 114 0;
#X connect 123 0 115 0;
#X connect 123 0 118 0;
#X connect 125 0 113 0;
#X connect 126 0 125 0;
#X connect 133 0 123 0;
#X connect 134 0 114 0;
#X connect 134 0 115 0;
#X connect 134 0 118 0;
#X coords 0 0.099702 1 0.099602 0 0 0;
