#N canvas 372 104 1310 801 10;
#X text 177 199 creation arguments are OSC address;
#X text 179 160 set message to change OSC address;
#X text 164 -30 1 Set IP Address : network address;
#X text 164 -10 2 Set Ports (sending and listening);
#X text 164 9 3 Set OSC Addresses (routing osc data;
#X text 155 -52 Key Settings;
#X floatatom 43 116 5 0 0 0 - - -;
#N canvas 199 56 771 493 oscReceive 0;
#X obj 55 184 netreceive -u -b;
#X msg 78 143 listen 0;
#X text 152 143 stop listening;
#X text 64 58 packets from network;
#X text 173 177 UDP packets \, binary output, f 13;
#X obj 45 314 print;
#X obj 45 272 oscparse;
#X text 150 114 listen on port 8000;
#X obj 177 269 oscparse;
#X obj 177 293 list trim;
#X text 241 267 Parse the OSC message;
#X obj 177 319 route unity;
#X msg 66 115 listen 8000;
#X obj 66 84 loadbang;
#X floatatom 108 409 5 0 0 0 - - -;
#X obj 108 383 route oscplaywave;
#X obj 108 440 s oscplaywave;
#X floatatom 226 409 5 0 0 0 - - -;
#X obj 226 383 route oscplayocean;
#X obj 226 440 s oscplayocean;
#X floatatom 347 409 5 0 0 0 - - -;
#X obj 347 440 s playfootstep;
#X obj 347 383 route playfootstep;
#X floatatom 473 409 5 0 0 0 - - -;
#X obj 473 383 route playrunstep;
#X obj 473 440 s playrunstep;
#X floatatom 585 409 5 0 0 0 - - -;
#X floatatom 702 409 5 0 0 0 - - -;
#X floatatom 820 409 5 0 0 0 - - -;
#X obj 585 383 route playchannel1;
#X obj 702 383 route playchannel2;
#X obj 820 383 route playchannel3;
#X obj 585 440 s playchannel1;
#X obj 702 440 s playchannel2;
#X obj 820 440 s playchannel3;
#X connect 0 0 6 0;
#X connect 0 0 8 0;
#X connect 1 0 0 0;
#X connect 6 0 5 0;
#X connect 8 0 9 0;
#X connect 9 0 11 0;
#X connect 11 0 15 0;
#X connect 11 0 18 0;
#X connect 11 0 22 0;
#X connect 11 0 24 0;
#X connect 11 0 29 0;
#X connect 11 0 30 0;
#X connect 11 0 31 0;
#X connect 12 0 0 0;
#X connect 13 0 12 0;
#X connect 14 0 16 0;
#X connect 15 0 14 0;
#X connect 17 0 19 0;
#X connect 18 0 17 0;
#X connect 20 0 21 0;
#X connect 22 0 20 0;
#X connect 23 0 25 0;
#X connect 24 0 23 0;
#X connect 26 0 32 0;
#X connect 27 0 33 0;
#X connect 28 0 34 0;
#X connect 29 0 26 0;
#X connect 30 0 27 0;
#X connect 31 0 28 0;
#X restore 47 64 pd oscReceive;
#X obj 47 -42 tgl 15 0 empty empty empty 17 7 0 10 -262144 -1 -1 0
1;
#X msg 47 -17 \; pd dsp \$1;
#X obj 44 200 oscformat PD message;
#X msg 76 161 set PD message;
#N canvas 727 97 450 300 oscSend 0;
#X msg 158 207 disconnect;
#X obj 61 253 netsend -u -b;
#X obj 59 55 list prepend send;
#X obj 59 80 list trim;
#X msg 150 175 connect 127.0.0.1 8001;
#X obj 59 29 r oscOut;
#X text 301 163 send to port 8001;
#X msg 147 148 connect localhost 8001;
#X obj 147 108 loadbang;
#X connect 0 0 1 0;
#X connect 2 0 3 0;
#X connect 3 0 1 0;
#X connect 4 0 1 0;
#X connect 5 0 2 0;
#X connect 7 0 1 0;
#X connect 8 0 7 0;
#X restore 47 40 pd oscSend;
#X obj 44 235 s oscOut;
#X obj 223 684 vline~;
#X obj 617 676 *~;
#X obj 609 809 dac~;
#X obj 559 586 noise~;
#X obj 231 432 vsl 15 128 0 2000 0 0 empty empty empty 0 -9 0 10 -262144
-1 -1 0 1;
#X obj 275 431 vsl 15 128 0 4000 0 0 empty empty empty 0 -9 0 10 -262144
-1 -1 0 1;
#X floatatom 231 580 5 1000 2000 0 - - -;
#X floatatom 275 580 5 1000 4000 0 - - -;
#X obj 321 430 vsl 15 128 0 2000 0 0 empty empty empty 0 -9 0 10 -262144
-1 -1 0 1;
#X floatatom 321 581 5 1000 2000 0 - - -;
#X text 218 431 A;
#X text 261 429 S;
#X text 308 429 R;
#X obj 223 729 throw~ sound;
#X obj 656 639 catch~ sound;
#X msg 223 652 0.1 \$1 \, 0.06 \$2 \$1 \, 0 \$3 \$2;
#X obj 223 617 pack f f f;
#X text 368 293 (Attack ms \, Sustain ms \, Release ms);
#X text 228 636 0.1 is the max volume \, and 0.06 is the decay volume
;
#X text 303 730 vline info is thrown to catch sound;
#X text 338 425 Control Sound with Sliders;
#X obj 577 635 lop~ \$1;
#X floatatom 613 596 5 0 0 0 - - -;
#X obj 610 442 vsl 15 128 0 2000 0 0 empty empty empty 0 -9 0 10 -262144
-1 -1 0 1;
#X text 571 422 controllable low pass filter;
#X text 338 269 Unity can send A \, S \, R values here;
#X text 407 247 OCEAN;
#X text 43 446 init values for A \, S \, R;
#X text 662 518 init value for Filter in Hz;
#X msg 715 563 1500;
#X obj 275 1112 *~;
#X obj 264 1201 dac~;
#X obj 157 1027 noise~;
#X obj 230 1071 lop~ \$1;
#X obj 715 536 loadbang;
#X obj 347 1047 line~;
#X obj 347 999 \$1 100;
#X obj 347 953 tgl 15 0 empty empty empty 17 7 0 10 -262144 -1 -1 0
1;
#X obj 274 1146 *~ 0.1;
#X text 417 945 OCEAN (static);
#X obj 266 247 r oscplaywave;
#X obj 347 898 r oscplayocean;
#X floatatom 265 281 5 0 0 0 - - -;
#X floatatom 405 377 5 0 0 0 - - -;
#X obj 710 693 / 127;
#X obj 788 555 vsl 15 128 0 127 0 0 empty empty empty 0 -9 0 10 -262144
-1 -1 0 1;
#X obj 615 725 *~;
#X floatatom 748 766 5 0 0 0 - - -;
#X obj 264 322 bng 15 250 50 0 empty empty empty 17 7 0 10 -262144
-1 -1;
#X obj 341 336 / 2000;
#X floatatom 266 1030 5 0 0 0 - - -;
#X obj 964 691 *~;
#X obj 884 573 0 0 0 \, 0.5 \$1 0;
#X obj 884 594 vline~;
#X obj 965 733 *~;
#X obj 1147 663 vline~;
#X obj 930 437 bng 15 250 50 0 empty empty empty 17 7 0 10 -262144
-1 -1;
#X obj 930 293 r playfootstep;
#X floatatom 930 333 5 0 1 0 - - -;
#X obj 1086 289 r playrunstep;
#X msg 963 357 520;
#X floatatom 1064 367 5 0 1 0 - - -;
#X msg 1086 321 325;
#X obj 930 406 metro 520;
#X msg 884 552 2;
#X text 941 265 Walk Sound;
#X text 1093 263 Run Sound;
#X text 1533 444 Radio Channel 1;
#X obj 1749 547 *~;
#X obj 1704 506 lop~ \$1;
#X obj 1821 482 line~;
#X obj 1821 434 \$1 100;
#X obj 1821 388 tgl 15 0 empty empty empty 17 7 0 10 -262144 -1 -1
0 1;
#X obj 1748 581 *~ 0.1;
#X obj 1992 548 *~;
#X obj 1981 637 dac~;
#X obj 1947 507 lop~ \$1;
#X obj 2064 483 line~;
#X obj 2064 435 \$1 100;
#X obj 2064 389 tgl 15 0 empty empty empty 17 7 0 10 -262144 -1 -1
0 1;
#X obj 1991 582 *~ 0.1;
#X text 1891 380 Radio Channel 2;
#X text 2134 381 Radio Channel 3;
#X obj 1673 466 osc~ 400;
#X obj 1916 467 osc~ 600;
#X obj 1739 631 dac~;
#X floatatom 1748 468 5 0 0 0 - - -;
#X floatatom 1979 465 5 0 0 0 - - -;
#X text 1725 441 Set to 200;
#X text 1958 441 Set to 200;
#X obj 1558 286 r playchannel1;
#X obj 1821 286 r playchannel2;
#X obj 2064 290 r playchannel3;
#X text 1561 255 Play Channel 1 on the radio;
#X text 1819 253 Play Channel 2 on the radio;
#X text 2063 253 Play Channel 3 on the radio;
#X floatatom 1558 336 5 0 1 0 - - -;
#X floatatom 1821 333 5 0 1 0 - - -;
#X floatatom 2064 331 5 0 1 0 - - -;
#X obj 1033 654 lop~ 15;
#X msg 1147 617 0.5 10 \, 0 50 75;
#X obj 1098 914 dac~;
#X obj 965 762 *~ 1.5;
#X text 250 1013 Set to 200;
#N canvas 368 88 1382 806 Radio1 0;
#X obj 1057 730 *~;
#X obj 1237 802 dac~;
#X obj 995 451 mtof;
#X obj 227 187 tgl 15 0 empty empty empty 17 7 0 10 -262144 -1 -1 0
1;
#X obj 84 474 f;
#X obj 127 476 + 1;
#X obj 960 590 phasor~;
#X floatatom 982 497 5 0 0 0 - - -;
#X obj 990 639 -~ 1;
#X obj 187 503 s metronome;
#X obj 85 535 s beatCounter0;
#X floatatom 961 144 5 0 0 0 - - -;
#X obj 1000 420 +;
#X msg 935 244 0;
#X msg 1070 372 58;
#X floatatom 1069 395 5 0 0 0 - - -;
#X obj 1068 348 loadbang;
#X msg 974 244 2;
#X msg 1015 244 4;
#X msg 1058 244 7;
#X msg 1098 244 9;
#X obj 1126 697 vline~;
#X floatatom 1134 593 5 0 2000 0 - - -;
#X floatatom 1178 593 5 0 2000 0 - - -;
#X floatatom 1224 594 5 0 2000 0 - - -;
#X text 1148 578 A, f 2;
#X text 1195 578 S;
#X text 1244 578 R;
#X obj 1177 465 bng 15 250 50 0 empty empty empty 17 7 0 10 -262144
-1 -1;
#X obj 1126 630 pack f f f;
#X obj 956 57 r metronome;
#X obj 261 285 random 4;
#X floatatom 266 319 5 0 0 0 - - -;
#X msg 256 376 1200;
#X msg 305 376 600;
#X obj 170 449 metro 600;
#X floatatom 280 420 5 0 0 0 - - -;
#X msg 446 376 600;
#X obj 259 345 select 1 2 3 4;
#X msg 391 379 300;
#X msg 349 377 400;
#X obj 1177 430 r metronome;
#X obj 370 227 metro 4000;
#X obj 1113 555 + 100;
#X obj 1109 529 random 200;
#X obj 1185 551 + 100;
#X obj 1181 525 random 200;
#X obj 1268 536 + 100;
#X obj 1264 510 random 200;
#X obj 444 352 loadbang;
#X obj 1506 452 mtof;
#X floatatom 1493 498 5 0 0 0 - - -;
#X floatatom 1403 140 5 0 0 0 - - -;
#X obj 1511 421 +;
#X msg 1377 240 0;
#X floatatom 1576 396 5 0 0 0 - - -;
#X obj 1575 349 loadbang;
#X msg 1416 240 2;
#X msg 1457 240 4;
#X msg 1500 240 7;
#X msg 1540 240 9;
#X obj 1637 698 vline~;
#X floatatom 1645 594 5 0 2000 0 - - -;
#X floatatom 1689 594 5 0 2000 0 - - -;
#X floatatom 1735 595 5 0 2000 0 - - -;
#X text 1644 578 A;
#X text 1706 577 S;
#X text 1758 578 R;
#X obj 1684 462 bng 15 250 50 0 empty empty empty 17 7 0 10 -262144
-1 -1;
#X obj 1637 631 pack f f f;
#X obj 1624 556 + 100;
#X obj 1620 530 random 200;
#X obj 1696 552 + 100;
#X obj 1692 526 random 200;
#X obj 1779 537 + 100;
#X obj 1775 511 random 200;
#X obj 1471 591 osc~;
#X msg 1577 373 70;
#X obj 505 193 tgl 15 0 empty empty empty 17 7 0 10 -262144 -1 -1 0
1;
#X obj 436 459 f;
#X obj 479 461 + 1;
#X obj 613 270 random 4;
#X floatatom 618 304 5 0 0 0 - - -;
#X msg 608 361 1200;
#X msg 657 361 600;
#X obj 522 434 metro 600;
#X floatatom 632 405 5 0 0 0 - - -;
#X msg 798 361 600;
#X obj 611 330 select 1 2 3 4;
#X msg 743 364 300;
#X msg 701 362 400;
#X obj 796 337 loadbang;
#X text 329 132 toggle to play;
#X obj 301 133 tgl 15 0 empty empty empty 17 7 0 10 -262144 -1 -1 0
1;
#X obj 539 488 s metronome2;
#X obj 437 520 s beatCounter2;
#X obj 1400 53 r metronome2;
#X obj 1685 433 r metronome2;
#X obj 1528 709 *~;
#X obj 261 209 loadbang;
#X msg 261 242 seed 13;
#X floatatom 1251 985 5 0 0 0 - - -;
#X obj 1297 1185 osc~;
#X obj 1278 1130 mtof;
#X floatatom 1278 1153 5 0 0 0 - - -;
#X obj 1406 1249 *~;
#X msg 1241 1065 58;
#X floatatom 1273 1107 5 0 0 0 - - -;
#X obj 1475 1121 mtof;
#X floatatom 1475 1144 5 0 0 0 - - -;
#X floatatom 1470 1098 5 0 0 0 - - -;
#X msg 1486 1066 62;
#X obj 1577 1110 bng 15 250 50 0 empty empty empty 17 7 0 10 -262144
-1 -1;
#X obj 1541 1218 vline~;
#X obj 1494 1176 phasor~;
#X msg 1549 1173 0.05 1000 \, 0 3000 3500;
#X obj 1403 1214 +~;
#X obj 1363 1268 *~;
#X obj 1500 1265 *~;
#X obj 1541 1281 vline~;
#X obj 1249 1244 vline~;
#X msg 1239 1218 0.07 1000 \, 0 3000 4000;
#X msg 1565 1244 0.07 1000 \, 0 3000 4000;
#X floatatom 1408 1130 5 0 0 0 - - -;
#X obj 1409 1274 *~;
#X obj 1448 1223 osc~;
#X msg 1636 665 0.05 \$1 \, 0.01 \$2 \$1 \, 0 \$3 \$2;
#X obj 282 977 r beatCounter0;
#X floatatom 280 1004 5 0 0 0 - - -;
#X obj 271 1079 select 1 2 3 4;
#X obj 342 1195 vline~;
#X obj 168 1185 lop~ \$1;
#X floatatom 178 1148 5 0 0 0 - - -;
#X obj 178 997 vsl 15 128 0 2000 0 0 empty empty empty 0 -9 0 10 -262144
-1 -1 5397 1;
#X obj 292 1239 *~;
#X obj 1406 1331 dac~;
#X obj 595 1341 dac~;
#X obj 1696 902 r beatCounter0;
#X floatatom 1696 933 5 0 0 0 - - -;
#X msg 330 1167 0.1 50 \, 0 50 50;
#X obj 299 1112 bng 15 250 50 0 empty empty empty 17 7 0 10 -262144
-1 -1;
#X obj 348 1112 bng 15 250 50 0 empty empty empty 17 7 0 10 -262144
-1 -1;
#X obj 275 1031 mod 5;
#X floatatom 273 1056 5 0 0 0 - - -;
#X obj 620 972 r beatCounter0;
#X floatatom 618 999 5 0 0 0 - - -;
#X obj 609 1074 select 1 2 3 4;
#X obj 680 1190 vline~;
#X obj 61 1058 noise~;
#X floatatom 516 1143 5 0 0 0 - - -;
#X obj 516 992 vsl 15 128 0 2000 0 0 empty empty empty 0 -9 0 10 -262144
-1 -1 12065 1;
#X obj 630 1234 *~;
#X obj 637 1107 bng 15 250 50 0 empty empty empty 17 7 0 10 -262144
-1 -1;
#X obj 686 1107 bng 15 250 50 0 empty empty empty 17 7 0 10 -262144
-1 -1;
#X floatatom 611 1051 5 0 0 0 - - -;
#X obj 553 1269 +~;
#X obj 613 1026 mod 6;
#X obj 506 1180 hip~ \$1;
#X msg 668 1162 0.1 25 \, 0 50 25;
#X obj 1355 1011 loadbang;
#X obj 173 942 loadbang;
#X msg 174 970 850;
#X obj 509 930 loadbang;
#X msg 514 960 1900;
#X obj 62 1093 s~ noisey;
#X obj 109 1142 r~ noisey;
#X obj 440 1134 r~ noisey;
#X floatatom 930 977 5 0 0 0 - - -;
#X obj 992 1168 vline~;
#X floatatom 828 1121 5 0 0 0 - - -;
#X obj 828 970 vsl 15 128 0 2000 0 0 empty empty empty 0 -9 0 10 -262144
-1 -1 12700 1;
#X obj 942 1212 *~;
#X obj 949 1085 bng 15 250 50 0 empty empty empty 17 7 0 10 -262144
-1 -1;
#X obj 998 1085 bng 15 250 50 0 empty empty empty 17 7 0 10 -262144
-1 -1;
#X floatatom 923 1029 5 0 0 0 - - -;
#X obj 818 1158 hip~ \$1;
#X obj 821 908 loadbang;
#X obj 752 1112 r~ noisey;
#X obj 605 1288 +~;
#X msg 980 1140 0.1 10 \, 0 10 10;
#X msg 826 938 2500;
#X obj 925 1004 mod 7;
#X obj 921 1052 select 1 2 3 4 5 6;
#X obj 932 950 r beatCounter2;
#X text 1642 650 comment;
#X obj 1018 681 *~;
#X obj 1036 639 phasor~;
#X floatatom 1019 595 5 0 2000 0 - - -;
#X obj 1046 546 loadbang;
#X floatatom 1377 551 5 0 2000 0 - - -;
#X obj 1404 502 loadbang;
#X obj 1394 595 osc~;
#X obj 1445 649 *~;
#X msg 1127 656 0.06 \$1 \, 0.01 \$2 \$1 \, 0 \$3 \$2;
#X text 507 876 DRUM SECTION;
#X text 357 92 METRONOME;
#X text 1222 17 MELODY SECTION;
#X text 1427 861 PAD SECTION;
#X msg 1282 1065 62;
#X msg 1447 1067 65;
#X obj 960 96 random 5;
#X obj 1402 91 random 5;
#X obj 960 190 select 0 1 2 3;
#X obj 1402 186 select 0 1 2 3;
#X floatatom 1550 292 5 0 0 0 - - -;
#X floatatom 1094 289 5 0 0 0 - - -;
#X msg 1265 709 1;
#X floatatom 1266 734 5 0 0 0 - - -;
#X obj 1264 688 loadbang;
#X obj 1268 759 *~;
#X obj 1234 758 *~;
#X msg 1017 571 8;
#X msg 1375 527 8;
#X text 1134 413 randomized Attack \, Sustain \, Release;
#X text 1616 416 randomized Attack \, Sustain \, Release;
#X floatatom 1464 984 5 0 0 0 - - -;
#X obj 1227 1016 select 0 1;
#X obj 1250 960 random 3;
#X msg 1317 1066 65;
#X msg 1552 1066 58;
#X msg 1521 1065 69;
#X obj 1466 1011 select 0 1 2;
#X obj 1463 959 random 4;
#X obj 1684 1034 s padTrigger;
#X obj 1591 1076 r padTrigger;
#X text 1693 887 Pad Timer;
#X obj 1462 925 r padTrigger;
#X obj 1249 930 r padTrigger;
#X obj 1695 974 mod 8;
#X obj 1682 1004 select 0;
#X msg 1409 1102 0.1;
#X obj 31 39 inlet;
#X floatatom 373 276 5 0 0 0 - - -;
#X floatatom 98 507 5 0 0 0 - - -;
#X floatatom 479 495 5 0 0 0 - - -;
#X obj 261 85 r startRadio1;
#X obj 34 96 s startRadio1;
#X connect 0 0 1 0;
#X connect 0 0 210 0;
#X connect 2 0 7 0;
#X connect 3 0 35 0;
#X connect 4 0 5 0;
#X connect 4 0 10 0;
#X connect 4 0 233 0;
#X connect 5 0 4 1;
#X connect 6 0 8 0;
#X connect 7 0 6 0;
#X connect 8 0 185 0;
#X connect 11 0 202 0;
#X connect 12 0 2 0;
#X connect 13 0 12 0;
#X connect 14 0 15 0;
#X connect 15 0 12 1;
#X connect 16 0 14 0;
#X connect 17 0 12 0;
#X connect 18 0 12 0;
#X connect 19 0 12 0;
#X connect 19 0 205 0;
#X connect 20 0 12 0;
#X connect 20 0 205 0;
#X connect 21 0 0 1;
#X connect 22 0 29 0;
#X connect 23 0 29 1;
#X connect 24 0 29 2;
#X connect 28 0 44 0;
#X connect 28 0 46 0;
#X connect 28 0 48 0;
#X connect 29 0 193 0;
#X connect 30 0 200 0;
#X connect 31 0 32 0;
#X connect 32 0 38 0;
#X connect 33 0 36 0;
#X connect 34 0 36 0;
#X connect 35 0 4 0;
#X connect 35 0 9 0;
#X connect 36 0 35 1;
#X connect 37 0 36 0;
#X connect 38 1 33 0;
#X connect 38 2 34 0;
#X connect 38 3 40 0;
#X connect 38 4 39 0;
#X connect 39 0 36 0;
#X connect 40 0 36 0;
#X connect 41 0 28 0;
#X connect 42 0 81 0;
#X connect 42 0 31 0;
#X connect 42 0 232 0;
#X connect 43 0 22 0;
#X connect 44 0 43 0;
#X connect 45 0 23 0;
#X connect 46 0 45 0;
#X connect 47 0 24 0;
#X connect 48 0 47 0;
#X connect 49 0 37 0;
#X connect 50 0 51 0;
#X connect 51 0 76 0;
#X connect 52 0 203 0;
#X connect 53 0 50 0;
#X connect 54 0 53 0;
#X connect 54 0 204 0;
#X connect 55 0 53 1;
#X connect 56 0 77 0;
#X connect 57 0 53 0;
#X connect 57 0 204 0;
#X connect 58 0 53 0;
#X connect 58 0 204 0;
#X connect 59 0 53 0;
#X connect 59 0 204 0;
#X connect 60 0 53 0;
#X connect 60 0 204 0;
#X connect 61 0 98 1;
#X connect 62 0 69 0;
#X connect 63 0 69 1;
#X connect 64 0 69 2;
#X connect 68 0 71 0;
#X connect 68 0 73 0;
#X connect 68 0 75 0;
#X connect 69 0 126 0;
#X connect 70 0 62 0;
#X connect 71 0 70 0;
#X connect 72 0 63 0;
#X connect 73 0 72 0;
#X connect 74 0 64 0;
#X connect 75 0 74 0;
#X connect 76 0 192 0;
#X connect 77 0 55 0;
#X connect 78 0 85 0;
#X connect 79 0 80 0;
#X connect 79 0 95 0;
#X connect 79 0 234 0;
#X connect 80 0 79 1;
#X connect 81 0 82 0;
#X connect 82 0 88 0;
#X connect 83 0 86 0;
#X connect 84 0 86 0;
#X connect 85 0 79 0;
#X connect 85 0 94 0;
#X connect 86 0 85 1;
#X connect 87 0 86 0;
#X connect 88 1 83 0;
#X connect 88 2 84 0;
#X connect 88 3 90 0;
#X connect 88 4 89 0;
#X connect 89 0 86 0;
#X connect 90 0 86 0;
#X connect 91 0 87 0;
#X connect 93 0 78 0;
#X connect 93 0 3 0;
#X connect 93 0 42 0;
#X connect 96 0 201 0;
#X connect 97 0 68 0;
#X connect 98 0 1 1;
#X connect 98 0 209 0;
#X connect 99 0 100 0;
#X connect 100 0 31 0;
#X connect 101 0 216 0;
#X connect 102 0 116 0;
#X connect 102 0 117 0;
#X connect 103 0 104 0;
#X connect 104 0 102 0;
#X connect 105 0 124 0;
#X connect 106 0 107 0;
#X connect 107 0 103 0;
#X connect 108 0 109 0;
#X connect 109 0 114 0;
#X connect 110 0 108 0;
#X connect 111 0 110 0;
#X connect 112 0 115 0;
#X connect 112 0 122 0;
#X connect 112 0 121 0;
#X connect 113 0 124 1;
#X connect 114 0 116 1;
#X connect 114 0 118 0;
#X connect 115 0 113 0;
#X connect 116 0 105 0;
#X connect 117 0 135 0;
#X connect 118 0 135 1;
#X connect 119 0 118 1;
#X connect 120 0 117 1;
#X connect 121 0 120 0;
#X connect 122 0 119 0;
#X connect 123 0 125 0;
#X connect 124 0 135 0;
#X connect 124 0 135 1;
#X connect 125 0 105 1;
#X connect 126 0 61 0;
#X connect 127 0 128 0;
#X connect 128 0 142 0;
#X connect 129 0 140 0;
#X connect 129 3 141 0;
#X connect 130 0 134 1;
#X connect 131 0 134 0;
#X connect 132 0 131 1;
#X connect 133 0 132 0;
#X connect 134 0 155 0;
#X connect 137 0 138 0;
#X connect 138 0 228 0;
#X connect 139 0 130 0;
#X connect 140 0 139 0;
#X connect 141 0 139 0;
#X connect 142 0 143 0;
#X connect 143 0 129 0;
#X connect 144 0 145 0;
#X connect 145 0 156 0;
#X connect 146 2 152 0;
#X connect 146 3 153 0;
#X connect 146 4 153 0;
#X connect 147 0 151 1;
#X connect 148 0 164 0;
#X connect 149 0 157 1;
#X connect 150 0 149 0;
#X connect 151 0 155 1;
#X connect 152 0 158 0;
#X connect 153 0 158 0;
#X connect 154 0 146 0;
#X connect 155 0 178 0;
#X connect 156 0 154 0;
#X connect 157 0 151 0;
#X connect 158 0 147 0;
#X connect 159 0 106 0;
#X connect 159 0 111 0;
#X connect 159 0 230 0;
#X connect 160 0 161 0;
#X connect 161 0 133 0;
#X connect 162 0 163 0;
#X connect 163 0 150 0;
#X connect 165 0 131 0;
#X connect 166 0 157 0;
#X connect 167 0 181 0;
#X connect 168 0 171 1;
#X connect 169 0 175 1;
#X connect 170 0 169 0;
#X connect 171 0 178 1;
#X connect 172 0 179 0;
#X connect 173 0 179 0;
#X connect 174 0 182 0;
#X connect 175 0 171 0;
#X connect 176 0 180 0;
#X connect 177 0 175 0;
#X connect 178 0 136 0;
#X connect 178 0 136 1;
#X connect 179 0 168 0;
#X connect 180 0 170 0;
#X connect 181 0 174 0;
#X connect 182 0 172 0;
#X connect 182 1 172 0;
#X connect 182 2 172 0;
#X connect 182 3 173 0;
#X connect 182 4 173 0;
#X connect 182 6 173 0;
#X connect 183 0 167 0;
#X connect 185 0 0 0;
#X connect 186 0 185 1;
#X connect 187 0 186 0;
#X connect 188 0 211 0;
#X connect 189 0 191 0;
#X connect 190 0 212 0;
#X connect 191 0 192 1;
#X connect 192 0 98 0;
#X connect 193 0 21 0;
#X connect 198 0 107 0;
#X connect 199 0 110 0;
#X connect 200 0 11 0;
#X connect 201 0 52 0;
#X connect 202 0 13 0;
#X connect 202 1 17 0;
#X connect 202 2 18 0;
#X connect 202 3 19 0;
#X connect 202 4 20 0;
#X connect 203 0 54 0;
#X connect 203 1 57 0;
#X connect 203 2 58 0;
#X connect 203 3 59 0;
#X connect 203 4 60 0;
#X connect 206 0 207 0;
#X connect 207 0 210 1;
#X connect 207 0 209 1;
#X connect 208 0 206 0;
#X connect 209 0 1 0;
#X connect 210 0 1 1;
#X connect 211 0 187 0;
#X connect 212 0 189 0;
#X connect 215 0 221 0;
#X connect 216 0 106 0;
#X connect 216 1 198 0;
#X connect 216 2 218 0;
#X connect 217 0 101 0;
#X connect 218 0 107 0;
#X connect 219 0 110 0;
#X connect 220 0 110 0;
#X connect 221 0 199 0;
#X connect 221 1 111 0;
#X connect 221 2 220 0;
#X connect 221 3 219 0;
#X connect 222 0 215 0;
#X connect 224 0 112 0;
#X connect 226 0 222 0;
#X connect 227 0 217 0;
#X connect 228 0 229 0;
#X connect 229 0 223 0;
#X connect 230 0 123 0;
#X connect 231 0 236 0;
#X connect 235 0 93 0;
#X restore 1548 425 pd Radio1;
#X obj 1559 382 tgl 15 0 empty empty empty 17 7 0 10 -262144 -1 -1
0 1;
#X obj 1278 518 vline~;
#X floatatom 1216 480 5 0 0 0 - - -;
#X obj 1244 563 *~;
#X obj 1206 517 hip~ \$1;
#X obj 1208 410 loadbang;
#X msg 1213 440 2500;
#X obj 1284 773 +~;
#X obj 1383 686 vline~;
#X floatatom 1325 637 5 0 0 0 - - -;
#X obj 1319 732 *~;
#X obj 1315 674 hip~ \$1;
#X obj 1319 576 loadbang;
#X msg 1324 606 1000;
#X msg 1370 658 0.01 25 \, 0 50 25;
#X obj 1262 458 r stepTempo;
#X obj 1369 622 r stepTempo;
#X msg 1266 490 0.01 20 \, 0 10 10;
#X obj 1102 857 +~;
#X obj 1045 430 noise~;
#X obj 1046 465 s~ noiseSend;
#X obj 1032 615 r~ noiseSend;
#X obj 1185 382 r~ noiseSend;
#X obj 1304 552 r~ noiseSend;
#X obj 1149 581 r stepTempo;
#X obj 883 522 r stepTempo;
#X obj 930 469 s stepTempo;
#X connect 6 0 10 0;
#X connect 8 0 9 0;
#X connect 10 0 13 0;
#X connect 11 0 10 0;
#X connect 14 0 27 0;
#X connect 15 0 60 0;
#X connect 17 0 35 0;
#X connect 18 0 20 0;
#X connect 19 0 21 0;
#X connect 20 0 30 0;
#X connect 21 0 30 1;
#X connect 22 0 23 0;
#X connect 23 0 30 2;
#X connect 28 0 15 1;
#X connect 29 0 14 0;
#X connect 30 0 29 0;
#X connect 35 0 15 0;
#X connect 36 0 35 1;
#X connect 37 0 36 0;
#X connect 43 0 36 0;
#X connect 44 0 52 0;
#X connect 46 0 47 0;
#X connect 47 0 44 0;
#X connect 48 0 43 0;
#X connect 49 0 44 1;
#X connect 50 0 49 0;
#X connect 51 0 50 0;
#X connect 52 0 45 0;
#X connect 52 0 45 1;
#X connect 54 0 56 0;
#X connect 55 0 51 0;
#X connect 56 0 58 0;
#X connect 56 0 62 0;
#X connect 56 0 63 0;
#X connect 59 0 61 0;
#X connect 60 0 16 0;
#X connect 60 0 16 1;
#X connect 62 0 18 0;
#X connect 62 0 22 0;
#X connect 62 0 19 0;
#X connect 63 0 57 0;
#X connect 63 0 60 1;
#X connect 64 0 47 1;
#X connect 65 0 68 0;
#X connect 66 0 67 0;
#X connect 67 0 65 0;
#X connect 68 0 116 0;
#X connect 69 0 68 1;
#X connect 70 0 145 0;
#X connect 71 0 72 0;
#X connect 72 0 74 0;
#X connect 72 0 77 0;
#X connect 73 0 76 0;
#X connect 74 0 77 1;
#X connect 75 0 77 0;
#X connect 76 0 75 0;
#X connect 76 0 77 1;
#X connect 77 0 70 0;
#X connect 78 0 66 0;
#X connect 82 0 87 0;
#X connect 83 0 82 0;
#X connect 84 0 82 1;
#X connect 85 0 84 0;
#X connect 86 0 85 0;
#X connect 87 0 99 0;
#X connect 87 0 99 1;
#X connect 88 0 94 0;
#X connect 90 0 88 0;
#X connect 91 0 88 1;
#X connect 92 0 91 0;
#X connect 93 0 92 0;
#X connect 94 0 89 0;
#X connect 94 0 89 1;
#X connect 97 0 83 0;
#X connect 98 0 90 0;
#X connect 100 0 83 1;
#X connect 101 0 90 1;
#X connect 104 0 110 0;
#X connect 105 0 111 0;
#X connect 106 0 112 0;
#X connect 110 0 119 0;
#X connect 111 0 86 0;
#X connect 112 0 93 0;
#X connect 113 0 65 1;
#X connect 114 0 69 0;
#X connect 116 0 137 0;
#X connect 119 0 118 0;
#X connect 120 0 122 1;
#X connect 121 0 123 1;
#X connect 122 0 126 0;
#X connect 123 0 122 0;
#X connect 124 0 125 0;
#X connect 125 0 121 0;
#X connect 126 0 137 1;
#X connect 127 0 129 1;
#X connect 128 0 130 1;
#X connect 129 0 126 1;
#X connect 130 0 129 0;
#X connect 131 0 132 0;
#X connect 132 0 128 0;
#X connect 133 0 127 0;
#X connect 134 0 136 0;
#X connect 135 0 133 0;
#X connect 136 0 120 0;
#X connect 137 0 115 0;
#X connect 137 0 115 1;
#X connect 138 0 139 0;
#X connect 140 0 113 0;
#X connect 141 0 123 0;
#X connect 142 0 130 0;
#X connect 143 0 114 0;
#X connect 144 0 78 0;
#X coords 0 0.0801014 1 0.0800014 0 0 0;
